G04 #@! TF.GenerationSoftware,KiCad,Pcbnew,(5.1.4)-1*
G04 #@! TF.CreationDate,2023-01-16T00:03:53+01:00*
G04 #@! TF.ProjectId,2ButtonKeyboardPCB,32427574-746f-46e4-9b65-79626f617264,rev?*
G04 #@! TF.SameCoordinates,Original*
G04 #@! TF.FileFunction,Legend,Bot*
G04 #@! TF.FilePolarity,Positive*
%FSLAX46Y46*%
G04 Gerber Fmt 4.6, Leading zero omitted, Abs format (unit mm)*
G04 Created by KiCad (PCBNEW (5.1.4)-1) date 2023-01-16 00:03:53*
%MOMM*%
%LPD*%
G04 APERTURE LIST*
%ADD10C,0.120000*%
%ADD11C,0.150000*%
G04 APERTURE END LIST*
D10*
X170068750Y-72893750D02*
X170068750Y-68993750D01*
X168068750Y-72893750D02*
X168068750Y-68993750D01*
X170068750Y-72893750D02*
X168068750Y-72893750D01*
X189912500Y-72831250D02*
X189912500Y-68931250D01*
X187912500Y-72831250D02*
X187912500Y-68931250D01*
X189912500Y-72831250D02*
X187912500Y-72831250D01*
X188056250Y-98837500D02*
X188056250Y-94837500D01*
X191356250Y-98837500D02*
X188056250Y-98837500D01*
D11*
X166806250Y-50006250D02*
X166806250Y-55456250D01*
X174506250Y-50006250D02*
X174506250Y-55456250D01*
X166806250Y-55456250D02*
X174506250Y-55456250D01*
X171612500Y-91662500D02*
X171612500Y-90387500D01*
X171037500Y-102012500D02*
X171037500Y-101337500D01*
X181387500Y-102012500D02*
X181387500Y-101337500D01*
X181387500Y-91662500D02*
X181387500Y-92337500D01*
X171037500Y-91662500D02*
X171037500Y-92337500D01*
X181387500Y-91662500D02*
X180712500Y-91662500D01*
X181387500Y-102012500D02*
X180712500Y-102012500D01*
X171037500Y-102012500D02*
X171712500Y-102012500D01*
X171037500Y-91662500D02*
X171612500Y-91662500D01*
X158175000Y-99793750D02*
X152975000Y-99793750D01*
X152975000Y-99793750D02*
X152975000Y-104993750D01*
X152975000Y-104993750D02*
X158175000Y-104993750D01*
X158175000Y-104993750D02*
X158175000Y-99793750D01*
X156575000Y-102393750D02*
G75*
G03X156575000Y-102393750I-1000000J0D01*
G01*
D10*
X167222672Y-105652500D02*
X167739828Y-105652500D01*
X167222672Y-107072500D02*
X167739828Y-107072500D01*
X186615000Y-88364828D02*
X186615000Y-87847672D01*
X188035000Y-88364828D02*
X188035000Y-87847672D01*
X159935172Y-54852500D02*
X160452328Y-54852500D01*
X159935172Y-56272500D02*
X160452328Y-56272500D01*
X159935172Y-51677500D02*
X160452328Y-51677500D01*
X159935172Y-53097500D02*
X160452328Y-53097500D01*
X149902500Y-90295814D02*
X149902500Y-89091686D01*
X151722500Y-90295814D02*
X151722500Y-89091686D01*
X181058750Y-86777328D02*
X181058750Y-86260172D01*
X182478750Y-86777328D02*
X182478750Y-86260172D01*
X167746750Y-92832422D02*
X167746750Y-93349578D01*
X166326750Y-92832422D02*
X166326750Y-93349578D01*
X166326750Y-100969578D02*
X166326750Y-100452422D01*
X167746750Y-100969578D02*
X167746750Y-100452422D01*
X189964828Y-93578750D02*
X189447672Y-93578750D01*
X189964828Y-92158750D02*
X189447672Y-92158750D01*
X189447672Y-100096250D02*
X189964828Y-100096250D01*
X189447672Y-101516250D02*
X189964828Y-101516250D01*
X173890172Y-86793000D02*
X174407328Y-86793000D01*
X173890172Y-88213000D02*
X174407328Y-88213000D01*
X179732172Y-105208000D02*
X180249328Y-105208000D01*
X179732172Y-106628000D02*
X180249328Y-106628000D01*
D11*
X171521130Y-69905654D02*
X170521130Y-69905654D01*
X170521130Y-70143750D01*
X170568750Y-70286607D01*
X170663988Y-70381845D01*
X170759226Y-70429464D01*
X170949702Y-70477083D01*
X171092559Y-70477083D01*
X171283035Y-70429464D01*
X171378273Y-70381845D01*
X171473511Y-70286607D01*
X171521130Y-70143750D01*
X171521130Y-69905654D01*
X170521130Y-70810416D02*
X170521130Y-71429464D01*
X170902083Y-71096130D01*
X170902083Y-71238988D01*
X170949702Y-71334226D01*
X170997321Y-71381845D01*
X171092559Y-71429464D01*
X171330654Y-71429464D01*
X171425892Y-71381845D01*
X171473511Y-71334226D01*
X171521130Y-71238988D01*
X171521130Y-70953273D01*
X171473511Y-70858035D01*
X171425892Y-70810416D01*
X191364880Y-69843154D02*
X190364880Y-69843154D01*
X190364880Y-70081250D01*
X190412500Y-70224107D01*
X190507738Y-70319345D01*
X190602976Y-70366964D01*
X190793452Y-70414583D01*
X190936309Y-70414583D01*
X191126785Y-70366964D01*
X191222023Y-70319345D01*
X191317261Y-70224107D01*
X191364880Y-70081250D01*
X191364880Y-69843154D01*
X190698214Y-71271726D02*
X191364880Y-71271726D01*
X190317261Y-71033630D02*
X191031547Y-70795535D01*
X191031547Y-71414583D01*
X192132440Y-96361309D02*
X192608630Y-96361309D01*
X191608630Y-96027976D02*
X192132440Y-96361309D01*
X191608630Y-96694642D01*
X192608630Y-97551785D02*
X192608630Y-96980357D01*
X192608630Y-97266071D02*
X191608630Y-97266071D01*
X191751488Y-97170833D01*
X191846726Y-97075595D01*
X191894345Y-96980357D01*
X172394345Y-51490630D02*
X172394345Y-52300154D01*
X172346726Y-52395392D01*
X172299107Y-52443011D01*
X172203869Y-52490630D01*
X172013392Y-52490630D01*
X171918154Y-52443011D01*
X171870535Y-52395392D01*
X171822916Y-52300154D01*
X171822916Y-51490630D01*
X171394345Y-52443011D02*
X171251488Y-52490630D01*
X171013392Y-52490630D01*
X170918154Y-52443011D01*
X170870535Y-52395392D01*
X170822916Y-52300154D01*
X170822916Y-52204916D01*
X170870535Y-52109678D01*
X170918154Y-52062059D01*
X171013392Y-52014440D01*
X171203869Y-51966821D01*
X171299107Y-51919202D01*
X171346726Y-51871583D01*
X171394345Y-51776345D01*
X171394345Y-51681107D01*
X171346726Y-51585869D01*
X171299107Y-51538250D01*
X171203869Y-51490630D01*
X170965773Y-51490630D01*
X170822916Y-51538250D01*
X170061011Y-51966821D02*
X169918154Y-52014440D01*
X169870535Y-52062059D01*
X169822916Y-52157297D01*
X169822916Y-52300154D01*
X169870535Y-52395392D01*
X169918154Y-52443011D01*
X170013392Y-52490630D01*
X170394345Y-52490630D01*
X170394345Y-51490630D01*
X170061011Y-51490630D01*
X169965773Y-51538250D01*
X169918154Y-51585869D01*
X169870535Y-51681107D01*
X169870535Y-51776345D01*
X169918154Y-51871583D01*
X169965773Y-51919202D01*
X170061011Y-51966821D01*
X170394345Y-51966821D01*
X168870535Y-52490630D02*
X169441964Y-52490630D01*
X169156250Y-52490630D02*
X169156250Y-51490630D01*
X169251488Y-51633488D01*
X169346726Y-51728726D01*
X169441964Y-51776345D01*
X168214880Y-96075595D02*
X169024404Y-96075595D01*
X169119642Y-96123214D01*
X169167261Y-96170833D01*
X169214880Y-96266071D01*
X169214880Y-96456547D01*
X169167261Y-96551785D01*
X169119642Y-96599404D01*
X169024404Y-96647023D01*
X168214880Y-96647023D01*
X169214880Y-97647023D02*
X169214880Y-97075595D01*
X169214880Y-97361309D02*
X168214880Y-97361309D01*
X168357738Y-97266071D01*
X168452976Y-97170833D01*
X168500595Y-97075595D01*
X156908333Y-106862511D02*
X156765476Y-106910130D01*
X156527380Y-106910130D01*
X156432142Y-106862511D01*
X156384523Y-106814892D01*
X156336904Y-106719654D01*
X156336904Y-106624416D01*
X156384523Y-106529178D01*
X156432142Y-106481559D01*
X156527380Y-106433940D01*
X156717857Y-106386321D01*
X156813095Y-106338702D01*
X156860714Y-106291083D01*
X156908333Y-106195845D01*
X156908333Y-106100607D01*
X156860714Y-106005369D01*
X156813095Y-105957750D01*
X156717857Y-105910130D01*
X156479761Y-105910130D01*
X156336904Y-105957750D01*
X156003571Y-105910130D02*
X155765476Y-106910130D01*
X155575000Y-106195845D01*
X155384523Y-106910130D01*
X155146428Y-105910130D01*
X154241666Y-106910130D02*
X154813095Y-106910130D01*
X154527380Y-106910130D02*
X154527380Y-105910130D01*
X154622619Y-106052988D01*
X154717857Y-106148226D01*
X154813095Y-106195845D01*
X167647916Y-108464880D02*
X167981250Y-107988690D01*
X168219345Y-108464880D02*
X168219345Y-107464880D01*
X167838392Y-107464880D01*
X167743154Y-107512500D01*
X167695535Y-107560119D01*
X167647916Y-107655357D01*
X167647916Y-107798214D01*
X167695535Y-107893452D01*
X167743154Y-107941071D01*
X167838392Y-107988690D01*
X168219345Y-107988690D01*
X166790773Y-107798214D02*
X166790773Y-108464880D01*
X167028869Y-107417261D02*
X167266964Y-108131547D01*
X166647916Y-108131547D01*
X189427380Y-87939583D02*
X188951190Y-87606250D01*
X189427380Y-87368154D02*
X188427380Y-87368154D01*
X188427380Y-87749107D01*
X188475000Y-87844345D01*
X188522619Y-87891964D01*
X188617857Y-87939583D01*
X188760714Y-87939583D01*
X188855952Y-87891964D01*
X188903571Y-87844345D01*
X188951190Y-87749107D01*
X188951190Y-87368154D01*
X188427380Y-88272916D02*
X188427380Y-88891964D01*
X188808333Y-88558630D01*
X188808333Y-88701488D01*
X188855952Y-88796726D01*
X188903571Y-88844345D01*
X188998809Y-88891964D01*
X189236904Y-88891964D01*
X189332142Y-88844345D01*
X189379761Y-88796726D01*
X189427380Y-88701488D01*
X189427380Y-88415773D01*
X189379761Y-88320535D01*
X189332142Y-88272916D01*
X160360416Y-57664880D02*
X160693750Y-57188690D01*
X160931845Y-57664880D02*
X160931845Y-56664880D01*
X160550892Y-56664880D01*
X160455654Y-56712500D01*
X160408035Y-56760119D01*
X160360416Y-56855357D01*
X160360416Y-56998214D01*
X160408035Y-57093452D01*
X160455654Y-57141071D01*
X160550892Y-57188690D01*
X160931845Y-57188690D01*
X159979464Y-56760119D02*
X159931845Y-56712500D01*
X159836607Y-56664880D01*
X159598511Y-56664880D01*
X159503273Y-56712500D01*
X159455654Y-56760119D01*
X159408035Y-56855357D01*
X159408035Y-56950595D01*
X159455654Y-57093452D01*
X160027083Y-57664880D01*
X159408035Y-57664880D01*
X160360416Y-54489880D02*
X160693750Y-54013690D01*
X160931845Y-54489880D02*
X160931845Y-53489880D01*
X160550892Y-53489880D01*
X160455654Y-53537500D01*
X160408035Y-53585119D01*
X160360416Y-53680357D01*
X160360416Y-53823214D01*
X160408035Y-53918452D01*
X160455654Y-53966071D01*
X160550892Y-54013690D01*
X160931845Y-54013690D01*
X159408035Y-54489880D02*
X159979464Y-54489880D01*
X159693750Y-54489880D02*
X159693750Y-53489880D01*
X159788988Y-53632738D01*
X159884226Y-53727976D01*
X159979464Y-53775595D01*
X152561071Y-89360416D02*
X152561071Y-89027083D01*
X153084880Y-89027083D02*
X152084880Y-89027083D01*
X152084880Y-89503273D01*
X153084880Y-90408035D02*
X153084880Y-89836607D01*
X153084880Y-90122321D02*
X152084880Y-90122321D01*
X152227738Y-90027083D01*
X152322976Y-89931845D01*
X152370595Y-89836607D01*
X183775892Y-86352083D02*
X183823511Y-86304464D01*
X183871130Y-86161607D01*
X183871130Y-86066369D01*
X183823511Y-85923511D01*
X183728273Y-85828273D01*
X183633035Y-85780654D01*
X183442559Y-85733035D01*
X183299702Y-85733035D01*
X183109226Y-85780654D01*
X183013988Y-85828273D01*
X182918750Y-85923511D01*
X182871130Y-86066369D01*
X182871130Y-86161607D01*
X182918750Y-86304464D01*
X182966369Y-86352083D01*
X182871130Y-86685416D02*
X182871130Y-87352083D01*
X183871130Y-86923511D01*
X165743892Y-92924333D02*
X165791511Y-92876714D01*
X165839130Y-92733857D01*
X165839130Y-92638619D01*
X165791511Y-92495761D01*
X165696273Y-92400523D01*
X165601035Y-92352904D01*
X165410559Y-92305285D01*
X165267702Y-92305285D01*
X165077226Y-92352904D01*
X164981988Y-92400523D01*
X164886750Y-92495761D01*
X164839130Y-92638619D01*
X164839130Y-92733857D01*
X164886750Y-92876714D01*
X164934369Y-92924333D01*
X164839130Y-93781476D02*
X164839130Y-93591000D01*
X164886750Y-93495761D01*
X164934369Y-93448142D01*
X165077226Y-93352904D01*
X165267702Y-93305285D01*
X165648654Y-93305285D01*
X165743892Y-93352904D01*
X165791511Y-93400523D01*
X165839130Y-93495761D01*
X165839130Y-93686238D01*
X165791511Y-93781476D01*
X165743892Y-93829095D01*
X165648654Y-93876714D01*
X165410559Y-93876714D01*
X165315321Y-93829095D01*
X165267702Y-93781476D01*
X165220083Y-93686238D01*
X165220083Y-93495761D01*
X165267702Y-93400523D01*
X165315321Y-93352904D01*
X165410559Y-93305285D01*
X169043892Y-100544333D02*
X169091511Y-100496714D01*
X169139130Y-100353857D01*
X169139130Y-100258619D01*
X169091511Y-100115761D01*
X168996273Y-100020523D01*
X168901035Y-99972904D01*
X168710559Y-99925285D01*
X168567702Y-99925285D01*
X168377226Y-99972904D01*
X168281988Y-100020523D01*
X168186750Y-100115761D01*
X168139130Y-100258619D01*
X168139130Y-100353857D01*
X168186750Y-100496714D01*
X168234369Y-100544333D01*
X168139130Y-101449095D02*
X168139130Y-100972904D01*
X168615321Y-100925285D01*
X168567702Y-100972904D01*
X168520083Y-101068142D01*
X168520083Y-101306238D01*
X168567702Y-101401476D01*
X168615321Y-101449095D01*
X168710559Y-101496714D01*
X168948654Y-101496714D01*
X169043892Y-101449095D01*
X169091511Y-101401476D01*
X169139130Y-101306238D01*
X169139130Y-101068142D01*
X169091511Y-100972904D01*
X169043892Y-100925285D01*
X189872916Y-91575892D02*
X189920535Y-91623511D01*
X190063392Y-91671130D01*
X190158630Y-91671130D01*
X190301488Y-91623511D01*
X190396726Y-91528273D01*
X190444345Y-91433035D01*
X190491964Y-91242559D01*
X190491964Y-91099702D01*
X190444345Y-90909226D01*
X190396726Y-90813988D01*
X190301488Y-90718750D01*
X190158630Y-90671130D01*
X190063392Y-90671130D01*
X189920535Y-90718750D01*
X189872916Y-90766369D01*
X189015773Y-91004464D02*
X189015773Y-91671130D01*
X189253869Y-90623511D02*
X189491964Y-91337797D01*
X188872916Y-91337797D01*
X189872916Y-102813392D02*
X189920535Y-102861011D01*
X190063392Y-102908630D01*
X190158630Y-102908630D01*
X190301488Y-102861011D01*
X190396726Y-102765773D01*
X190444345Y-102670535D01*
X190491964Y-102480059D01*
X190491964Y-102337202D01*
X190444345Y-102146726D01*
X190396726Y-102051488D01*
X190301488Y-101956250D01*
X190158630Y-101908630D01*
X190063392Y-101908630D01*
X189920535Y-101956250D01*
X189872916Y-102003869D01*
X189539583Y-101908630D02*
X188920535Y-101908630D01*
X189253869Y-102289583D01*
X189111011Y-102289583D01*
X189015773Y-102337202D01*
X188968154Y-102384821D01*
X188920535Y-102480059D01*
X188920535Y-102718154D01*
X188968154Y-102813392D01*
X189015773Y-102861011D01*
X189111011Y-102908630D01*
X189396726Y-102908630D01*
X189491964Y-102861011D01*
X189539583Y-102813392D01*
X174315416Y-89510142D02*
X174363035Y-89557761D01*
X174505892Y-89605380D01*
X174601130Y-89605380D01*
X174743988Y-89557761D01*
X174839226Y-89462523D01*
X174886845Y-89367285D01*
X174934464Y-89176809D01*
X174934464Y-89033952D01*
X174886845Y-88843476D01*
X174839226Y-88748238D01*
X174743988Y-88653000D01*
X174601130Y-88605380D01*
X174505892Y-88605380D01*
X174363035Y-88653000D01*
X174315416Y-88700619D01*
X173934464Y-88700619D02*
X173886845Y-88653000D01*
X173791607Y-88605380D01*
X173553511Y-88605380D01*
X173458273Y-88653000D01*
X173410654Y-88700619D01*
X173363035Y-88795857D01*
X173363035Y-88891095D01*
X173410654Y-89033952D01*
X173982083Y-89605380D01*
X173363035Y-89605380D01*
X180157416Y-107925142D02*
X180205035Y-107972761D01*
X180347892Y-108020380D01*
X180443130Y-108020380D01*
X180585988Y-107972761D01*
X180681226Y-107877523D01*
X180728845Y-107782285D01*
X180776464Y-107591809D01*
X180776464Y-107448952D01*
X180728845Y-107258476D01*
X180681226Y-107163238D01*
X180585988Y-107068000D01*
X180443130Y-107020380D01*
X180347892Y-107020380D01*
X180205035Y-107068000D01*
X180157416Y-107115619D01*
X179205035Y-108020380D02*
X179776464Y-108020380D01*
X179490750Y-108020380D02*
X179490750Y-107020380D01*
X179585988Y-107163238D01*
X179681226Y-107258476D01*
X179776464Y-107306095D01*
M02*
