G04 #@! TF.GenerationSoftware,KiCad,Pcbnew,(5.1.4)-1*
G04 #@! TF.CreationDate,2023-01-16T00:03:53+01:00*
G04 #@! TF.ProjectId,2ButtonKeyboardPCB,32427574-746f-46e4-9b65-79626f617264,rev?*
G04 #@! TF.SameCoordinates,Original*
G04 #@! TF.FileFunction,Drawing*
%FSLAX46Y46*%
G04 Gerber Fmt 4.6, Leading zero omitted, Abs format (unit mm)*
G04 Created by KiCad (PCBNEW (5.1.4)-1) date 2023-01-16 00:03:53*
%MOMM*%
%LPD*%
G04 APERTURE LIST*
%ADD10C,0.150000*%
G04 APERTURE END LIST*
D10*
X170656250Y-78581250D02*
X170656250Y-59531250D01*
X189706250Y-78581250D02*
X170656250Y-78581250D01*
X189706250Y-59531250D02*
X189706250Y-78581250D01*
X170656250Y-59531250D02*
X189706250Y-59531250D01*
X173181250Y-62056250D02*
X173181250Y-64056250D01*
X175181250Y-62056250D02*
X173181250Y-62056250D01*
X173181250Y-76056250D02*
X175181250Y-76056250D01*
X173181250Y-74056250D02*
X173181250Y-76056250D01*
X187181250Y-76056250D02*
X187181250Y-74056250D01*
X185181250Y-76056250D02*
X187181250Y-76056250D01*
X187181250Y-62056250D02*
X187181250Y-64056250D01*
X185181250Y-62056250D02*
X187181250Y-62056250D01*
X151606250Y-78581250D02*
X151606250Y-59531250D01*
X170656250Y-78581250D02*
X151606250Y-78581250D01*
X170656250Y-59531250D02*
X170656250Y-78581250D01*
X151606250Y-59531250D02*
X170656250Y-59531250D01*
X154131250Y-62056250D02*
X154131250Y-64056250D01*
X156131250Y-62056250D02*
X154131250Y-62056250D01*
X154131250Y-76056250D02*
X156131250Y-76056250D01*
X154131250Y-74056250D02*
X154131250Y-76056250D01*
X168131250Y-76056250D02*
X168131250Y-74056250D01*
X166131250Y-76056250D02*
X168131250Y-76056250D01*
X168131250Y-62056250D02*
X168131250Y-64056250D01*
X166131250Y-62056250D02*
X168131250Y-62056250D01*
X166806250Y-46256250D02*
X166806250Y-50006250D01*
X174506250Y-46256250D02*
X174506250Y-50006250D01*
X166084250Y-48256250D02*
X175228250Y-48256250D01*
X166806250Y-46256250D02*
X174506250Y-46256250D01*
X178895535Y-72683630D02*
X178895535Y-71683630D01*
X179228869Y-72397916D01*
X179562202Y-71683630D01*
X179562202Y-72683630D01*
X179943154Y-71683630D02*
X180609821Y-72683630D01*
X180609821Y-71683630D02*
X179943154Y-72683630D01*
X181419345Y-72016964D02*
X181419345Y-72683630D01*
X181181250Y-71636011D02*
X180943154Y-72350297D01*
X181562202Y-72350297D01*
X176419345Y-61571130D02*
X176419345Y-60571130D01*
X176752678Y-61285416D01*
X177086011Y-60571130D01*
X177086011Y-61571130D01*
X177466964Y-60571130D02*
X178133630Y-61571130D01*
X178133630Y-60571130D02*
X177466964Y-61571130D01*
X178514583Y-61190178D02*
X179276488Y-61190178D01*
X179752678Y-61571130D02*
X179752678Y-60571130D01*
X180324107Y-61571130D01*
X180324107Y-60571130D01*
X180943154Y-61571130D02*
X180847916Y-61523511D01*
X180800297Y-61475892D01*
X180752678Y-61380654D01*
X180752678Y-61094940D01*
X180800297Y-60999702D01*
X180847916Y-60952083D01*
X180943154Y-60904464D01*
X181086011Y-60904464D01*
X181181250Y-60952083D01*
X181228869Y-60999702D01*
X181276488Y-61094940D01*
X181276488Y-61380654D01*
X181228869Y-61475892D01*
X181181250Y-61523511D01*
X181086011Y-61571130D01*
X180943154Y-61571130D01*
X182181250Y-61571130D02*
X181705059Y-61571130D01*
X181705059Y-60571130D01*
X182514583Y-61047321D02*
X182847916Y-61047321D01*
X182990773Y-61571130D02*
X182514583Y-61571130D01*
X182514583Y-60571130D01*
X182990773Y-60571130D01*
X183419345Y-61571130D02*
X183419345Y-60571130D01*
X183657440Y-60571130D01*
X183800297Y-60618750D01*
X183895535Y-60713988D01*
X183943154Y-60809226D01*
X183990773Y-60999702D01*
X183990773Y-61142559D01*
X183943154Y-61333035D01*
X183895535Y-61428273D01*
X183800297Y-61523511D01*
X183657440Y-61571130D01*
X183419345Y-61571130D01*
X159845535Y-72683630D02*
X159845535Y-71683630D01*
X160178869Y-72397916D01*
X160512202Y-71683630D01*
X160512202Y-72683630D01*
X160893154Y-71683630D02*
X161559821Y-72683630D01*
X161559821Y-71683630D02*
X160893154Y-72683630D01*
X161845535Y-71683630D02*
X162464583Y-71683630D01*
X162131250Y-72064583D01*
X162274107Y-72064583D01*
X162369345Y-72112202D01*
X162416964Y-72159821D01*
X162464583Y-72255059D01*
X162464583Y-72493154D01*
X162416964Y-72588392D01*
X162369345Y-72636011D01*
X162274107Y-72683630D01*
X161988392Y-72683630D01*
X161893154Y-72636011D01*
X161845535Y-72588392D01*
X157369345Y-61571130D02*
X157369345Y-60571130D01*
X157702678Y-61285416D01*
X158036011Y-60571130D01*
X158036011Y-61571130D01*
X158416964Y-60571130D02*
X159083630Y-61571130D01*
X159083630Y-60571130D02*
X158416964Y-61571130D01*
X159464583Y-61190178D02*
X160226488Y-61190178D01*
X160702678Y-61571130D02*
X160702678Y-60571130D01*
X161274107Y-61571130D01*
X161274107Y-60571130D01*
X161893154Y-61571130D02*
X161797916Y-61523511D01*
X161750297Y-61475892D01*
X161702678Y-61380654D01*
X161702678Y-61094940D01*
X161750297Y-60999702D01*
X161797916Y-60952083D01*
X161893154Y-60904464D01*
X162036011Y-60904464D01*
X162131250Y-60952083D01*
X162178869Y-60999702D01*
X162226488Y-61094940D01*
X162226488Y-61380654D01*
X162178869Y-61475892D01*
X162131250Y-61523511D01*
X162036011Y-61571130D01*
X161893154Y-61571130D01*
X163131250Y-61571130D02*
X162655059Y-61571130D01*
X162655059Y-60571130D01*
X163464583Y-61047321D02*
X163797916Y-61047321D01*
X163940773Y-61571130D02*
X163464583Y-61571130D01*
X163464583Y-60571130D01*
X163940773Y-60571130D01*
X164369345Y-61571130D02*
X164369345Y-60571130D01*
X164607440Y-60571130D01*
X164750297Y-60618750D01*
X164845535Y-60713988D01*
X164893154Y-60809226D01*
X164940773Y-60999702D01*
X164940773Y-61142559D01*
X164893154Y-61333035D01*
X164845535Y-61428273D01*
X164750297Y-61523511D01*
X164607440Y-61571130D01*
X164369345Y-61571130D01*
X163394345Y-45378630D02*
X163394345Y-44378630D01*
X163727678Y-45092916D01*
X164061011Y-44378630D01*
X164061011Y-45378630D01*
X164680059Y-45378630D02*
X164584821Y-45331011D01*
X164537202Y-45283392D01*
X164489583Y-45188154D01*
X164489583Y-44902440D01*
X164537202Y-44807202D01*
X164584821Y-44759583D01*
X164680059Y-44711964D01*
X164822916Y-44711964D01*
X164918154Y-44759583D01*
X164965773Y-44807202D01*
X165013392Y-44902440D01*
X165013392Y-45188154D01*
X164965773Y-45283392D01*
X164918154Y-45331011D01*
X164822916Y-45378630D01*
X164680059Y-45378630D01*
X165584821Y-45378630D02*
X165489583Y-45331011D01*
X165441964Y-45235773D01*
X165441964Y-44378630D01*
X166346726Y-45331011D02*
X166251488Y-45378630D01*
X166061011Y-45378630D01*
X165965773Y-45331011D01*
X165918154Y-45235773D01*
X165918154Y-44854821D01*
X165965773Y-44759583D01*
X166061011Y-44711964D01*
X166251488Y-44711964D01*
X166346726Y-44759583D01*
X166394345Y-44854821D01*
X166394345Y-44950059D01*
X165918154Y-45045297D01*
X166727678Y-45378630D02*
X167251488Y-44711964D01*
X166727678Y-44711964D02*
X167251488Y-45378630D01*
X167632440Y-44997678D02*
X168394345Y-44997678D01*
X169061011Y-44378630D02*
X169156250Y-44378630D01*
X169251488Y-44426250D01*
X169299107Y-44473869D01*
X169346726Y-44569107D01*
X169394345Y-44759583D01*
X169394345Y-44997678D01*
X169346726Y-45188154D01*
X169299107Y-45283392D01*
X169251488Y-45331011D01*
X169156250Y-45378630D01*
X169061011Y-45378630D01*
X168965773Y-45331011D01*
X168918154Y-45283392D01*
X168870535Y-45188154D01*
X168822916Y-44997678D01*
X168822916Y-44759583D01*
X168870535Y-44569107D01*
X168918154Y-44473869D01*
X168965773Y-44426250D01*
X169061011Y-44378630D01*
X170299107Y-44378630D02*
X169822916Y-44378630D01*
X169775297Y-44854821D01*
X169822916Y-44807202D01*
X169918154Y-44759583D01*
X170156250Y-44759583D01*
X170251488Y-44807202D01*
X170299107Y-44854821D01*
X170346726Y-44950059D01*
X170346726Y-45188154D01*
X170299107Y-45283392D01*
X170251488Y-45331011D01*
X170156250Y-45378630D01*
X169918154Y-45378630D01*
X169822916Y-45331011D01*
X169775297Y-45283392D01*
X171203869Y-44711964D02*
X171203869Y-45378630D01*
X170965773Y-44331011D02*
X170727678Y-45045297D01*
X171346726Y-45045297D01*
X171870535Y-44807202D02*
X171775297Y-44759583D01*
X171727678Y-44711964D01*
X171680059Y-44616726D01*
X171680059Y-44569107D01*
X171727678Y-44473869D01*
X171775297Y-44426250D01*
X171870535Y-44378630D01*
X172061011Y-44378630D01*
X172156250Y-44426250D01*
X172203869Y-44473869D01*
X172251488Y-44569107D01*
X172251488Y-44616726D01*
X172203869Y-44711964D01*
X172156250Y-44759583D01*
X172061011Y-44807202D01*
X171870535Y-44807202D01*
X171775297Y-44854821D01*
X171727678Y-44902440D01*
X171680059Y-44997678D01*
X171680059Y-45188154D01*
X171727678Y-45283392D01*
X171775297Y-45331011D01*
X171870535Y-45378630D01*
X172061011Y-45378630D01*
X172156250Y-45331011D01*
X172203869Y-45283392D01*
X172251488Y-45188154D01*
X172251488Y-44997678D01*
X172203869Y-44902440D01*
X172156250Y-44854821D01*
X172061011Y-44807202D01*
X173203869Y-45378630D02*
X172632440Y-45378630D01*
X172918154Y-45378630D02*
X172918154Y-44378630D01*
X172822916Y-44521488D01*
X172727678Y-44616726D01*
X172632440Y-44664345D01*
X173680059Y-45378630D02*
X173870535Y-45378630D01*
X173965773Y-45331011D01*
X174013392Y-45283392D01*
X174108630Y-45140535D01*
X174156250Y-44950059D01*
X174156250Y-44569107D01*
X174108630Y-44473869D01*
X174061011Y-44426250D01*
X173965773Y-44378630D01*
X173775297Y-44378630D01*
X173680059Y-44426250D01*
X173632440Y-44473869D01*
X173584821Y-44569107D01*
X173584821Y-44807202D01*
X173632440Y-44902440D01*
X173680059Y-44950059D01*
X173775297Y-44997678D01*
X173965773Y-44997678D01*
X174061011Y-44950059D01*
X174108630Y-44902440D01*
X174156250Y-44807202D01*
X174775297Y-44378630D02*
X174870535Y-44378630D01*
X174965773Y-44426250D01*
X175013392Y-44473869D01*
X175061011Y-44569107D01*
X175108630Y-44759583D01*
X175108630Y-44997678D01*
X175061011Y-45188154D01*
X175013392Y-45283392D01*
X174965773Y-45331011D01*
X174870535Y-45378630D01*
X174775297Y-45378630D01*
X174680059Y-45331011D01*
X174632440Y-45283392D01*
X174584821Y-45188154D01*
X174537202Y-44997678D01*
X174537202Y-44759583D01*
X174584821Y-44569107D01*
X174632440Y-44473869D01*
X174680059Y-44426250D01*
X174775297Y-44378630D01*
X176013392Y-44378630D02*
X175537202Y-44378630D01*
X175489583Y-44854821D01*
X175537202Y-44807202D01*
X175632440Y-44759583D01*
X175870535Y-44759583D01*
X175965773Y-44807202D01*
X176013392Y-44854821D01*
X176061011Y-44950059D01*
X176061011Y-45188154D01*
X176013392Y-45283392D01*
X175965773Y-45331011D01*
X175870535Y-45378630D01*
X175632440Y-45378630D01*
X175537202Y-45331011D01*
X175489583Y-45283392D01*
X176632440Y-44807202D02*
X176537202Y-44759583D01*
X176489583Y-44711964D01*
X176441964Y-44616726D01*
X176441964Y-44569107D01*
X176489583Y-44473869D01*
X176537202Y-44426250D01*
X176632440Y-44378630D01*
X176822916Y-44378630D01*
X176918154Y-44426250D01*
X176965773Y-44473869D01*
X177013392Y-44569107D01*
X177013392Y-44616726D01*
X176965773Y-44711964D01*
X176918154Y-44759583D01*
X176822916Y-44807202D01*
X176632440Y-44807202D01*
X176537202Y-44854821D01*
X176489583Y-44902440D01*
X176441964Y-44997678D01*
X176441964Y-45188154D01*
X176489583Y-45283392D01*
X176537202Y-45331011D01*
X176632440Y-45378630D01*
X176822916Y-45378630D01*
X176918154Y-45331011D01*
X176965773Y-45283392D01*
X177013392Y-45188154D01*
X177013392Y-44997678D01*
X176965773Y-44902440D01*
X176918154Y-44854821D01*
X176822916Y-44807202D01*
X177489583Y-45378630D02*
X177680059Y-45378630D01*
X177775297Y-45331011D01*
X177822916Y-45283392D01*
X177918154Y-45140535D01*
X177965773Y-44950059D01*
X177965773Y-44569107D01*
X177918154Y-44473869D01*
X177870535Y-44426250D01*
X177775297Y-44378630D01*
X177584821Y-44378630D01*
X177489583Y-44426250D01*
X177441964Y-44473869D01*
X177394345Y-44569107D01*
X177394345Y-44807202D01*
X177441964Y-44902440D01*
X177489583Y-44950059D01*
X177584821Y-44997678D01*
X177775297Y-44997678D01*
X177870535Y-44950059D01*
X177918154Y-44902440D01*
X177965773Y-44807202D01*
M02*
