G04 #@! TF.GenerationSoftware,KiCad,Pcbnew,(5.1.4)-1*
G04 #@! TF.CreationDate,2023-01-16T00:03:53+01:00*
G04 #@! TF.ProjectId,2ButtonKeyboardPCB,32427574-746f-46e4-9b65-79626f617264,rev?*
G04 #@! TF.SameCoordinates,Original*
G04 #@! TF.FileFunction,Soldermask,Top*
G04 #@! TF.FilePolarity,Negative*
%FSLAX46Y46*%
G04 Gerber Fmt 4.6, Leading zero omitted, Abs format (unit mm)*
G04 Created by KiCad (PCBNEW (5.1.4)-1) date 2023-01-16 00:03:53*
%MOMM*%
%LPD*%
G04 APERTURE LIST*
%ADD10C,0.100000*%
G04 APERTURE END LIST*
D10*
G36*
X161727724Y-67089934D02*
G01*
X161945724Y-67180233D01*
X162099873Y-67244083D01*
X162434798Y-67467873D01*
X162719627Y-67752702D01*
X162943417Y-68087627D01*
X162975812Y-68165836D01*
X163097566Y-68459776D01*
X163176150Y-68854844D01*
X163176150Y-69257656D01*
X163097566Y-69652724D01*
X163046701Y-69775522D01*
X162943417Y-70024873D01*
X162719627Y-70359798D01*
X162434798Y-70644627D01*
X162099873Y-70868417D01*
X161945724Y-70932267D01*
X161727724Y-71022566D01*
X161332656Y-71101150D01*
X160929844Y-71101150D01*
X160534776Y-71022566D01*
X160316776Y-70932267D01*
X160162627Y-70868417D01*
X159827702Y-70644627D01*
X159542873Y-70359798D01*
X159319083Y-70024873D01*
X159215799Y-69775522D01*
X159164934Y-69652724D01*
X159086350Y-69257656D01*
X159086350Y-68854844D01*
X159164934Y-68459776D01*
X159286688Y-68165836D01*
X159319083Y-68087627D01*
X159542873Y-67752702D01*
X159827702Y-67467873D01*
X160162627Y-67244083D01*
X160316776Y-67180233D01*
X160534776Y-67089934D01*
X160929844Y-67011350D01*
X161332656Y-67011350D01*
X161727724Y-67089934D01*
X161727724Y-67089934D01*
G37*
G36*
X180777724Y-67089934D02*
G01*
X180995724Y-67180233D01*
X181149873Y-67244083D01*
X181484798Y-67467873D01*
X181769627Y-67752702D01*
X181993417Y-68087627D01*
X182025812Y-68165836D01*
X182147566Y-68459776D01*
X182226150Y-68854844D01*
X182226150Y-69257656D01*
X182147566Y-69652724D01*
X182096701Y-69775522D01*
X181993417Y-70024873D01*
X181769627Y-70359798D01*
X181484798Y-70644627D01*
X181149873Y-70868417D01*
X180995724Y-70932267D01*
X180777724Y-71022566D01*
X180382656Y-71101150D01*
X179979844Y-71101150D01*
X179584776Y-71022566D01*
X179366776Y-70932267D01*
X179212627Y-70868417D01*
X178877702Y-70644627D01*
X178592873Y-70359798D01*
X178369083Y-70024873D01*
X178265799Y-69775522D01*
X178214934Y-69652724D01*
X178136350Y-69257656D01*
X178136350Y-68854844D01*
X178214934Y-68459776D01*
X178336688Y-68165836D01*
X178369083Y-68087627D01*
X178592873Y-67752702D01*
X178877702Y-67467873D01*
X179212627Y-67244083D01*
X179366776Y-67180233D01*
X179584776Y-67089934D01*
X179979844Y-67011350D01*
X180382656Y-67011350D01*
X180777724Y-67089934D01*
X180777724Y-67089934D01*
G37*
G36*
X185531354Y-68165835D02*
G01*
X185699876Y-68235639D01*
X185851541Y-68336978D01*
X185980522Y-68465959D01*
X186081861Y-68617624D01*
X186151665Y-68786146D01*
X186187250Y-68965047D01*
X186187250Y-69147453D01*
X186151665Y-69326354D01*
X186081861Y-69494876D01*
X185980522Y-69646541D01*
X185851541Y-69775522D01*
X185699876Y-69876861D01*
X185531354Y-69946665D01*
X185352453Y-69982250D01*
X185170047Y-69982250D01*
X184991146Y-69946665D01*
X184822624Y-69876861D01*
X184670959Y-69775522D01*
X184541978Y-69646541D01*
X184440639Y-69494876D01*
X184370835Y-69326354D01*
X184335250Y-69147453D01*
X184335250Y-68965047D01*
X184370835Y-68786146D01*
X184440639Y-68617624D01*
X184541978Y-68465959D01*
X184670959Y-68336978D01*
X184822624Y-68235639D01*
X184991146Y-68165835D01*
X185170047Y-68130250D01*
X185352453Y-68130250D01*
X185531354Y-68165835D01*
X185531354Y-68165835D01*
G37*
G36*
X156321354Y-68165835D02*
G01*
X156489876Y-68235639D01*
X156641541Y-68336978D01*
X156770522Y-68465959D01*
X156871861Y-68617624D01*
X156941665Y-68786146D01*
X156977250Y-68965047D01*
X156977250Y-69147453D01*
X156941665Y-69326354D01*
X156871861Y-69494876D01*
X156770522Y-69646541D01*
X156641541Y-69775522D01*
X156489876Y-69876861D01*
X156321354Y-69946665D01*
X156142453Y-69982250D01*
X155960047Y-69982250D01*
X155781146Y-69946665D01*
X155612624Y-69876861D01*
X155460959Y-69775522D01*
X155331978Y-69646541D01*
X155230639Y-69494876D01*
X155160835Y-69326354D01*
X155125250Y-69147453D01*
X155125250Y-68965047D01*
X155160835Y-68786146D01*
X155230639Y-68617624D01*
X155331978Y-68465959D01*
X155460959Y-68336978D01*
X155612624Y-68235639D01*
X155781146Y-68165835D01*
X155960047Y-68130250D01*
X156142453Y-68130250D01*
X156321354Y-68165835D01*
X156321354Y-68165835D01*
G37*
G36*
X166481354Y-68165835D02*
G01*
X166649876Y-68235639D01*
X166801541Y-68336978D01*
X166930522Y-68465959D01*
X167031861Y-68617624D01*
X167101665Y-68786146D01*
X167137250Y-68965047D01*
X167137250Y-69147453D01*
X167101665Y-69326354D01*
X167031861Y-69494876D01*
X166930522Y-69646541D01*
X166801541Y-69775522D01*
X166649876Y-69876861D01*
X166481354Y-69946665D01*
X166302453Y-69982250D01*
X166120047Y-69982250D01*
X165941146Y-69946665D01*
X165772624Y-69876861D01*
X165620959Y-69775522D01*
X165491978Y-69646541D01*
X165390639Y-69494876D01*
X165320835Y-69326354D01*
X165285250Y-69147453D01*
X165285250Y-68965047D01*
X165320835Y-68786146D01*
X165390639Y-68617624D01*
X165491978Y-68465959D01*
X165620959Y-68336978D01*
X165772624Y-68235639D01*
X165941146Y-68165835D01*
X166120047Y-68130250D01*
X166302453Y-68130250D01*
X166481354Y-68165835D01*
X166481354Y-68165835D01*
G37*
G36*
X175371354Y-68165835D02*
G01*
X175539876Y-68235639D01*
X175691541Y-68336978D01*
X175820522Y-68465959D01*
X175921861Y-68617624D01*
X175991665Y-68786146D01*
X176027250Y-68965047D01*
X176027250Y-69147453D01*
X175991665Y-69326354D01*
X175921861Y-69494876D01*
X175820522Y-69646541D01*
X175691541Y-69775522D01*
X175539876Y-69876861D01*
X175371354Y-69946665D01*
X175192453Y-69982250D01*
X175010047Y-69982250D01*
X174831146Y-69946665D01*
X174662624Y-69876861D01*
X174510959Y-69775522D01*
X174381978Y-69646541D01*
X174280639Y-69494876D01*
X174210835Y-69326354D01*
X174175250Y-69147453D01*
X174175250Y-68965047D01*
X174210835Y-68786146D01*
X174280639Y-68617624D01*
X174381978Y-68465959D01*
X174510959Y-68336978D01*
X174662624Y-68235639D01*
X174831146Y-68165835D01*
X175010047Y-68130250D01*
X175192453Y-68130250D01*
X175371354Y-68165835D01*
X175371354Y-68165835D01*
G37*
G36*
X174482877Y-53118287D02*
G01*
X174652716Y-53169807D01*
X174809241Y-53253472D01*
X174844979Y-53282802D01*
X174946436Y-53366064D01*
X175029698Y-53467521D01*
X175059028Y-53503259D01*
X175142693Y-53659784D01*
X175194213Y-53829623D01*
X175207250Y-53961992D01*
X175207250Y-55050508D01*
X175194213Y-55182877D01*
X175142693Y-55352716D01*
X175059028Y-55509241D01*
X175029698Y-55544979D01*
X174946436Y-55646436D01*
X174809239Y-55759029D01*
X174652717Y-55842692D01*
X174652715Y-55842693D01*
X174482876Y-55894213D01*
X174306250Y-55911609D01*
X174129623Y-55894213D01*
X173959784Y-55842693D01*
X173803259Y-55759028D01*
X173767521Y-55729698D01*
X173666064Y-55646436D01*
X173553471Y-55509239D01*
X173469808Y-55352717D01*
X173469807Y-55352715D01*
X173418287Y-55182876D01*
X173405250Y-55050507D01*
X173405251Y-53961992D01*
X173418288Y-53829623D01*
X173469808Y-53659784D01*
X173553473Y-53503259D01*
X173582803Y-53467521D01*
X173666065Y-53366064D01*
X173767522Y-53282802D01*
X173803260Y-53253472D01*
X173959785Y-53169807D01*
X174129624Y-53118287D01*
X174306250Y-53100891D01*
X174482877Y-53118287D01*
X174482877Y-53118287D01*
G37*
G36*
X167182877Y-53118287D02*
G01*
X167352716Y-53169807D01*
X167509241Y-53253472D01*
X167544979Y-53282802D01*
X167646436Y-53366064D01*
X167729698Y-53467521D01*
X167759028Y-53503259D01*
X167842693Y-53659784D01*
X167894213Y-53829623D01*
X167907250Y-53961992D01*
X167907250Y-55050508D01*
X167894213Y-55182877D01*
X167842693Y-55352716D01*
X167759028Y-55509241D01*
X167729698Y-55544979D01*
X167646436Y-55646436D01*
X167509239Y-55759029D01*
X167352717Y-55842692D01*
X167352715Y-55842693D01*
X167182876Y-55894213D01*
X167006250Y-55911609D01*
X166829623Y-55894213D01*
X166659784Y-55842693D01*
X166503259Y-55759028D01*
X166467521Y-55729698D01*
X166366064Y-55646436D01*
X166253471Y-55509239D01*
X166169808Y-55352717D01*
X166169807Y-55352715D01*
X166118287Y-55182876D01*
X166105250Y-55050507D01*
X166105251Y-53961992D01*
X166118288Y-53829623D01*
X166169808Y-53659784D01*
X166253473Y-53503259D01*
X166282803Y-53467521D01*
X166366065Y-53366064D01*
X166467522Y-53282802D01*
X166503260Y-53253472D01*
X166659785Y-53169807D01*
X166829624Y-53118287D01*
X167006250Y-53100891D01*
X167182877Y-53118287D01*
X167182877Y-53118287D01*
G37*
G36*
X167182877Y-48618287D02*
G01*
X167352716Y-48669807D01*
X167509241Y-48753472D01*
X167544979Y-48782802D01*
X167646436Y-48866064D01*
X167729698Y-48967521D01*
X167759028Y-49003259D01*
X167842693Y-49159784D01*
X167894213Y-49329623D01*
X167907250Y-49461992D01*
X167907250Y-50550508D01*
X167894213Y-50682877D01*
X167842693Y-50852716D01*
X167759028Y-51009241D01*
X167729698Y-51044979D01*
X167646436Y-51146436D01*
X167509239Y-51259029D01*
X167352717Y-51342692D01*
X167352715Y-51342693D01*
X167182876Y-51394213D01*
X167006250Y-51411609D01*
X166829623Y-51394213D01*
X166659784Y-51342693D01*
X166503259Y-51259028D01*
X166467521Y-51229698D01*
X166366064Y-51146436D01*
X166253471Y-51009239D01*
X166169808Y-50852717D01*
X166169807Y-50852715D01*
X166118287Y-50682876D01*
X166105250Y-50550507D01*
X166105251Y-49461992D01*
X166118288Y-49329623D01*
X166169808Y-49159784D01*
X166253473Y-49003259D01*
X166282803Y-48967521D01*
X166366065Y-48866064D01*
X166467522Y-48782802D01*
X166503260Y-48753472D01*
X166659785Y-48669807D01*
X166829624Y-48618287D01*
X167006250Y-48600891D01*
X167182877Y-48618287D01*
X167182877Y-48618287D01*
G37*
G36*
X174482877Y-48618287D02*
G01*
X174652716Y-48669807D01*
X174809241Y-48753472D01*
X174844979Y-48782802D01*
X174946436Y-48866064D01*
X175029698Y-48967521D01*
X175059028Y-49003259D01*
X175142693Y-49159784D01*
X175194213Y-49329623D01*
X175207250Y-49461992D01*
X175207250Y-50550508D01*
X175194213Y-50682877D01*
X175142693Y-50852716D01*
X175059028Y-51009241D01*
X175029698Y-51044979D01*
X174946436Y-51146436D01*
X174809239Y-51259029D01*
X174652717Y-51342692D01*
X174652715Y-51342693D01*
X174482876Y-51394213D01*
X174306250Y-51411609D01*
X174129623Y-51394213D01*
X173959784Y-51342693D01*
X173803259Y-51259028D01*
X173767521Y-51229698D01*
X173666064Y-51146436D01*
X173553471Y-51009239D01*
X173469808Y-50852717D01*
X173469807Y-50852715D01*
X173418287Y-50682876D01*
X173405250Y-50550507D01*
X173405251Y-49461992D01*
X173418288Y-49329623D01*
X173469808Y-49159784D01*
X173553473Y-49003259D01*
X173582803Y-48967521D01*
X173666065Y-48866064D01*
X173767522Y-48782802D01*
X173803260Y-48753472D01*
X173959785Y-48669807D01*
X174129624Y-48618287D01*
X174306250Y-48600891D01*
X174482877Y-48618287D01*
X174482877Y-48618287D01*
G37*
M02*
