G04 #@! TF.GenerationSoftware,KiCad,Pcbnew,(5.1.4)-1*
G04 #@! TF.CreationDate,2023-01-16T00:03:53+01:00*
G04 #@! TF.ProjectId,2ButtonKeyboardPCB,32427574-746f-46e4-9b65-79626f617264,rev?*
G04 #@! TF.SameCoordinates,Original*
G04 #@! TF.FileFunction,Soldermask,Bot*
G04 #@! TF.FilePolarity,Negative*
%FSLAX46Y46*%
G04 Gerber Fmt 4.6, Leading zero omitted, Abs format (unit mm)*
G04 Created by KiCad (PCBNEW (5.1.4)-1) date 2023-01-16 00:03:53*
%MOMM*%
%LPD*%
G04 APERTURE LIST*
%ADD10C,0.100000*%
G04 APERTURE END LIST*
D10*
G36*
X168790718Y-105616065D02*
G01*
X168829388Y-105627796D01*
X168865027Y-105646846D01*
X168896267Y-105672483D01*
X168921904Y-105703723D01*
X168940954Y-105739362D01*
X168952685Y-105778032D01*
X168957250Y-105824388D01*
X168957250Y-106900612D01*
X168952685Y-106946968D01*
X168940954Y-106985638D01*
X168921904Y-107021277D01*
X168896267Y-107052517D01*
X168865027Y-107078154D01*
X168829388Y-107097204D01*
X168790718Y-107108935D01*
X168744362Y-107113500D01*
X168093138Y-107113500D01*
X168046782Y-107108935D01*
X168008112Y-107097204D01*
X167972473Y-107078154D01*
X167941233Y-107052517D01*
X167915596Y-107021277D01*
X167896546Y-106985638D01*
X167884815Y-106946968D01*
X167880250Y-106900612D01*
X167880250Y-105824388D01*
X167884815Y-105778032D01*
X167896546Y-105739362D01*
X167915596Y-105703723D01*
X167941233Y-105672483D01*
X167972473Y-105646846D01*
X168008112Y-105627796D01*
X168046782Y-105616065D01*
X168093138Y-105611500D01*
X168744362Y-105611500D01*
X168790718Y-105616065D01*
X168790718Y-105616065D01*
G37*
G36*
X166915718Y-105616065D02*
G01*
X166954388Y-105627796D01*
X166990027Y-105646846D01*
X167021267Y-105672483D01*
X167046904Y-105703723D01*
X167065954Y-105739362D01*
X167077685Y-105778032D01*
X167082250Y-105824388D01*
X167082250Y-106900612D01*
X167077685Y-106946968D01*
X167065954Y-106985638D01*
X167046904Y-107021277D01*
X167021267Y-107052517D01*
X166990027Y-107078154D01*
X166954388Y-107097204D01*
X166915718Y-107108935D01*
X166869362Y-107113500D01*
X166218138Y-107113500D01*
X166171782Y-107108935D01*
X166133112Y-107097204D01*
X166097473Y-107078154D01*
X166066233Y-107052517D01*
X166040596Y-107021277D01*
X166021546Y-106985638D01*
X166009815Y-106946968D01*
X166005250Y-106900612D01*
X166005250Y-105824388D01*
X166009815Y-105778032D01*
X166021546Y-105739362D01*
X166040596Y-105703723D01*
X166066233Y-105672483D01*
X166097473Y-105646846D01*
X166133112Y-105627796D01*
X166171782Y-105616065D01*
X166218138Y-105611500D01*
X166869362Y-105611500D01*
X166915718Y-105616065D01*
X166915718Y-105616065D01*
G37*
G36*
X181300218Y-105171565D02*
G01*
X181338888Y-105183296D01*
X181374527Y-105202346D01*
X181405767Y-105227983D01*
X181431404Y-105259223D01*
X181450454Y-105294862D01*
X181462185Y-105333532D01*
X181466750Y-105379888D01*
X181466750Y-106456112D01*
X181462185Y-106502468D01*
X181450454Y-106541138D01*
X181431404Y-106576777D01*
X181405767Y-106608017D01*
X181374527Y-106633654D01*
X181338888Y-106652704D01*
X181300218Y-106664435D01*
X181253862Y-106669000D01*
X180602638Y-106669000D01*
X180556282Y-106664435D01*
X180517612Y-106652704D01*
X180481973Y-106633654D01*
X180450733Y-106608017D01*
X180425096Y-106576777D01*
X180406046Y-106541138D01*
X180394315Y-106502468D01*
X180389750Y-106456112D01*
X180389750Y-105379888D01*
X180394315Y-105333532D01*
X180406046Y-105294862D01*
X180425096Y-105259223D01*
X180450733Y-105227983D01*
X180481973Y-105202346D01*
X180517612Y-105183296D01*
X180556282Y-105171565D01*
X180602638Y-105167000D01*
X181253862Y-105167000D01*
X181300218Y-105171565D01*
X181300218Y-105171565D01*
G37*
G36*
X179425218Y-105171565D02*
G01*
X179463888Y-105183296D01*
X179499527Y-105202346D01*
X179530767Y-105227983D01*
X179556404Y-105259223D01*
X179575454Y-105294862D01*
X179587185Y-105333532D01*
X179591750Y-105379888D01*
X179591750Y-106456112D01*
X179587185Y-106502468D01*
X179575454Y-106541138D01*
X179556404Y-106576777D01*
X179530767Y-106608017D01*
X179499527Y-106633654D01*
X179463888Y-106652704D01*
X179425218Y-106664435D01*
X179378862Y-106669000D01*
X178727638Y-106669000D01*
X178681282Y-106664435D01*
X178642612Y-106652704D01*
X178606973Y-106633654D01*
X178575733Y-106608017D01*
X178550096Y-106576777D01*
X178531046Y-106541138D01*
X178519315Y-106502468D01*
X178514750Y-106456112D01*
X178514750Y-105379888D01*
X178519315Y-105333532D01*
X178531046Y-105294862D01*
X178550096Y-105259223D01*
X178575733Y-105227983D01*
X178606973Y-105202346D01*
X178642612Y-105183296D01*
X178681282Y-105171565D01*
X178727638Y-105167000D01*
X179378862Y-105167000D01*
X179425218Y-105171565D01*
X179425218Y-105171565D01*
G37*
G36*
X159626000Y-104844750D02*
G01*
X157724000Y-104844750D01*
X157724000Y-103642750D01*
X159626000Y-103642750D01*
X159626000Y-104844750D01*
X159626000Y-104844750D01*
G37*
G36*
X153426000Y-104844750D02*
G01*
X151524000Y-104844750D01*
X151524000Y-103642750D01*
X153426000Y-103642750D01*
X153426000Y-104844750D01*
X153426000Y-104844750D01*
G37*
G36*
X180538500Y-103338500D02*
G01*
X171886500Y-103338500D01*
X171886500Y-101736500D01*
X180538500Y-101736500D01*
X180538500Y-103338500D01*
X180538500Y-103338500D01*
G37*
G36*
X167621218Y-101114565D02*
G01*
X167659888Y-101126296D01*
X167695527Y-101145346D01*
X167726767Y-101170983D01*
X167752404Y-101202223D01*
X167771454Y-101237862D01*
X167783185Y-101276532D01*
X167787750Y-101322888D01*
X167787750Y-101974112D01*
X167783185Y-102020468D01*
X167771454Y-102059138D01*
X167752404Y-102094777D01*
X167726767Y-102126017D01*
X167695527Y-102151654D01*
X167659888Y-102170704D01*
X167621218Y-102182435D01*
X167574862Y-102187000D01*
X166498638Y-102187000D01*
X166452282Y-102182435D01*
X166413612Y-102170704D01*
X166377973Y-102151654D01*
X166346733Y-102126017D01*
X166321096Y-102094777D01*
X166302046Y-102059138D01*
X166290315Y-102020468D01*
X166285750Y-101974112D01*
X166285750Y-101322888D01*
X166290315Y-101276532D01*
X166302046Y-101237862D01*
X166321096Y-101202223D01*
X166346733Y-101170983D01*
X166377973Y-101145346D01*
X166413612Y-101126296D01*
X166452282Y-101114565D01*
X166498638Y-101110000D01*
X167574862Y-101110000D01*
X167621218Y-101114565D01*
X167621218Y-101114565D01*
G37*
G36*
X191015718Y-100059815D02*
G01*
X191054388Y-100071546D01*
X191090027Y-100090596D01*
X191121267Y-100116233D01*
X191146904Y-100147473D01*
X191165954Y-100183112D01*
X191177685Y-100221782D01*
X191182250Y-100268138D01*
X191182250Y-101344362D01*
X191177685Y-101390718D01*
X191165954Y-101429388D01*
X191146904Y-101465027D01*
X191121267Y-101496267D01*
X191090027Y-101521904D01*
X191054388Y-101540954D01*
X191015718Y-101552685D01*
X190969362Y-101557250D01*
X190318138Y-101557250D01*
X190271782Y-101552685D01*
X190233112Y-101540954D01*
X190197473Y-101521904D01*
X190166233Y-101496267D01*
X190140596Y-101465027D01*
X190121546Y-101429388D01*
X190109815Y-101390718D01*
X190105250Y-101344362D01*
X190105250Y-100268138D01*
X190109815Y-100221782D01*
X190121546Y-100183112D01*
X190140596Y-100147473D01*
X190166233Y-100116233D01*
X190197473Y-100090596D01*
X190233112Y-100071546D01*
X190271782Y-100059815D01*
X190318138Y-100055250D01*
X190969362Y-100055250D01*
X191015718Y-100059815D01*
X191015718Y-100059815D01*
G37*
G36*
X189140718Y-100059815D02*
G01*
X189179388Y-100071546D01*
X189215027Y-100090596D01*
X189246267Y-100116233D01*
X189271904Y-100147473D01*
X189290954Y-100183112D01*
X189302685Y-100221782D01*
X189307250Y-100268138D01*
X189307250Y-101344362D01*
X189302685Y-101390718D01*
X189290954Y-101429388D01*
X189271904Y-101465027D01*
X189246267Y-101496267D01*
X189215027Y-101521904D01*
X189179388Y-101540954D01*
X189140718Y-101552685D01*
X189094362Y-101557250D01*
X188443138Y-101557250D01*
X188396782Y-101552685D01*
X188358112Y-101540954D01*
X188322473Y-101521904D01*
X188291233Y-101496267D01*
X188265596Y-101465027D01*
X188246546Y-101429388D01*
X188234815Y-101390718D01*
X188230250Y-101344362D01*
X188230250Y-100268138D01*
X188234815Y-100221782D01*
X188246546Y-100183112D01*
X188265596Y-100147473D01*
X188291233Y-100116233D01*
X188322473Y-100090596D01*
X188358112Y-100071546D01*
X188396782Y-100059815D01*
X188443138Y-100055250D01*
X189094362Y-100055250D01*
X189140718Y-100059815D01*
X189140718Y-100059815D01*
G37*
G36*
X182713500Y-101163500D02*
G01*
X181111500Y-101163500D01*
X181111500Y-92511500D01*
X182713500Y-92511500D01*
X182713500Y-101163500D01*
X182713500Y-101163500D01*
G37*
G36*
X171313500Y-101163500D02*
G01*
X169711500Y-101163500D01*
X169711500Y-92511500D01*
X171313500Y-92511500D01*
X171313500Y-101163500D01*
X171313500Y-101163500D01*
G37*
G36*
X153426000Y-101144750D02*
G01*
X151524000Y-101144750D01*
X151524000Y-99942750D01*
X153426000Y-99942750D01*
X153426000Y-101144750D01*
X153426000Y-101144750D01*
G37*
G36*
X159626000Y-101144750D02*
G01*
X157724000Y-101144750D01*
X157724000Y-99942750D01*
X159626000Y-99942750D01*
X159626000Y-101144750D01*
X159626000Y-101144750D01*
G37*
G36*
X167621218Y-99239565D02*
G01*
X167659888Y-99251296D01*
X167695527Y-99270346D01*
X167726767Y-99295983D01*
X167752404Y-99327223D01*
X167771454Y-99362862D01*
X167783185Y-99401532D01*
X167787750Y-99447888D01*
X167787750Y-100099112D01*
X167783185Y-100145468D01*
X167771454Y-100184138D01*
X167752404Y-100219777D01*
X167726767Y-100251017D01*
X167695527Y-100276654D01*
X167659888Y-100295704D01*
X167621218Y-100307435D01*
X167574862Y-100312000D01*
X166498638Y-100312000D01*
X166452282Y-100307435D01*
X166413612Y-100295704D01*
X166377973Y-100276654D01*
X166346733Y-100251017D01*
X166321096Y-100219777D01*
X166302046Y-100184138D01*
X166290315Y-100145468D01*
X166285750Y-100099112D01*
X166285750Y-99447888D01*
X166290315Y-99401532D01*
X166302046Y-99362862D01*
X166321096Y-99327223D01*
X166346733Y-99295983D01*
X166377973Y-99270346D01*
X166413612Y-99251296D01*
X166452282Y-99239565D01*
X166498638Y-99235000D01*
X167574862Y-99235000D01*
X167621218Y-99239565D01*
X167621218Y-99239565D01*
G37*
G36*
X189507250Y-98688500D02*
G01*
X188205250Y-98688500D01*
X188205250Y-97186500D01*
X189507250Y-97186500D01*
X189507250Y-98688500D01*
X189507250Y-98688500D01*
G37*
G36*
X191207250Y-98688500D02*
G01*
X189905250Y-98688500D01*
X189905250Y-97186500D01*
X191207250Y-97186500D01*
X191207250Y-98688500D01*
X191207250Y-98688500D01*
G37*
G36*
X191207250Y-96488500D02*
G01*
X189905250Y-96488500D01*
X189905250Y-94986500D01*
X191207250Y-94986500D01*
X191207250Y-96488500D01*
X191207250Y-96488500D01*
G37*
G36*
X189507250Y-96488500D02*
G01*
X188205250Y-96488500D01*
X188205250Y-94986500D01*
X189507250Y-94986500D01*
X189507250Y-96488500D01*
X189507250Y-96488500D01*
G37*
G36*
X167621218Y-93494565D02*
G01*
X167659888Y-93506296D01*
X167695527Y-93525346D01*
X167726767Y-93550983D01*
X167752404Y-93582223D01*
X167771454Y-93617862D01*
X167783185Y-93656532D01*
X167787750Y-93702888D01*
X167787750Y-94354112D01*
X167783185Y-94400468D01*
X167771454Y-94439138D01*
X167752404Y-94474777D01*
X167726767Y-94506017D01*
X167695527Y-94531654D01*
X167659888Y-94550704D01*
X167621218Y-94562435D01*
X167574862Y-94567000D01*
X166498638Y-94567000D01*
X166452282Y-94562435D01*
X166413612Y-94550704D01*
X166377973Y-94531654D01*
X166346733Y-94506017D01*
X166321096Y-94474777D01*
X166302046Y-94439138D01*
X166290315Y-94400468D01*
X166285750Y-94354112D01*
X166285750Y-93702888D01*
X166290315Y-93656532D01*
X166302046Y-93617862D01*
X166321096Y-93582223D01*
X166346733Y-93550983D01*
X166377973Y-93525346D01*
X166413612Y-93506296D01*
X166452282Y-93494565D01*
X166498638Y-93490000D01*
X167574862Y-93490000D01*
X167621218Y-93494565D01*
X167621218Y-93494565D01*
G37*
G36*
X189140718Y-92122315D02*
G01*
X189179388Y-92134046D01*
X189215027Y-92153096D01*
X189246267Y-92178733D01*
X189271904Y-92209973D01*
X189290954Y-92245612D01*
X189302685Y-92284282D01*
X189307250Y-92330638D01*
X189307250Y-93406862D01*
X189302685Y-93453218D01*
X189290954Y-93491888D01*
X189271904Y-93527527D01*
X189246267Y-93558767D01*
X189215027Y-93584404D01*
X189179388Y-93603454D01*
X189140718Y-93615185D01*
X189094362Y-93619750D01*
X188443138Y-93619750D01*
X188396782Y-93615185D01*
X188358112Y-93603454D01*
X188322473Y-93584404D01*
X188291233Y-93558767D01*
X188265596Y-93527527D01*
X188246546Y-93491888D01*
X188234815Y-93453218D01*
X188230250Y-93406862D01*
X188230250Y-92330638D01*
X188234815Y-92284282D01*
X188246546Y-92245612D01*
X188265596Y-92209973D01*
X188291233Y-92178733D01*
X188322473Y-92153096D01*
X188358112Y-92134046D01*
X188396782Y-92122315D01*
X188443138Y-92117750D01*
X189094362Y-92117750D01*
X189140718Y-92122315D01*
X189140718Y-92122315D01*
G37*
G36*
X191015718Y-92122315D02*
G01*
X191054388Y-92134046D01*
X191090027Y-92153096D01*
X191121267Y-92178733D01*
X191146904Y-92209973D01*
X191165954Y-92245612D01*
X191177685Y-92284282D01*
X191182250Y-92330638D01*
X191182250Y-93406862D01*
X191177685Y-93453218D01*
X191165954Y-93491888D01*
X191146904Y-93527527D01*
X191121267Y-93558767D01*
X191090027Y-93584404D01*
X191054388Y-93603454D01*
X191015718Y-93615185D01*
X190969362Y-93619750D01*
X190318138Y-93619750D01*
X190271782Y-93615185D01*
X190233112Y-93603454D01*
X190197473Y-93584404D01*
X190166233Y-93558767D01*
X190140596Y-93527527D01*
X190121546Y-93491888D01*
X190109815Y-93453218D01*
X190105250Y-93406862D01*
X190105250Y-92330638D01*
X190109815Y-92284282D01*
X190121546Y-92245612D01*
X190140596Y-92209973D01*
X190166233Y-92178733D01*
X190197473Y-92153096D01*
X190233112Y-92134046D01*
X190271782Y-92122315D01*
X190318138Y-92117750D01*
X190969362Y-92117750D01*
X191015718Y-92122315D01*
X191015718Y-92122315D01*
G37*
G36*
X167621218Y-91619565D02*
G01*
X167659888Y-91631296D01*
X167695527Y-91650346D01*
X167726767Y-91675983D01*
X167752404Y-91707223D01*
X167771454Y-91742862D01*
X167783185Y-91781532D01*
X167787750Y-91827888D01*
X167787750Y-92479112D01*
X167783185Y-92525468D01*
X167771454Y-92564138D01*
X167752404Y-92599777D01*
X167726767Y-92631017D01*
X167695527Y-92656654D01*
X167659888Y-92675704D01*
X167621218Y-92687435D01*
X167574862Y-92692000D01*
X166498638Y-92692000D01*
X166452282Y-92687435D01*
X166413612Y-92675704D01*
X166377973Y-92656654D01*
X166346733Y-92631017D01*
X166321096Y-92599777D01*
X166302046Y-92564138D01*
X166290315Y-92525468D01*
X166285750Y-92479112D01*
X166285750Y-91827888D01*
X166290315Y-91781532D01*
X166302046Y-91742862D01*
X166321096Y-91707223D01*
X166346733Y-91675983D01*
X166377973Y-91650346D01*
X166413612Y-91631296D01*
X166452282Y-91619565D01*
X166498638Y-91615000D01*
X167574862Y-91615000D01*
X167621218Y-91619565D01*
X167621218Y-91619565D01*
G37*
G36*
X180538500Y-91938500D02*
G01*
X171886500Y-91938500D01*
X171886500Y-90336500D01*
X180538500Y-90336500D01*
X180538500Y-91938500D01*
X180538500Y-91938500D01*
G37*
G36*
X151581104Y-90422097D02*
G01*
X151617644Y-90433182D01*
X151651321Y-90451183D01*
X151680841Y-90475409D01*
X151705067Y-90504929D01*
X151723068Y-90538606D01*
X151734153Y-90575146D01*
X151738500Y-90619288D01*
X151738500Y-91568212D01*
X151734153Y-91612354D01*
X151723068Y-91648894D01*
X151705067Y-91682571D01*
X151680841Y-91712091D01*
X151651321Y-91736317D01*
X151617644Y-91754318D01*
X151581104Y-91765403D01*
X151536962Y-91769750D01*
X150088038Y-91769750D01*
X150043896Y-91765403D01*
X150007356Y-91754318D01*
X149973679Y-91736317D01*
X149944159Y-91712091D01*
X149919933Y-91682571D01*
X149901932Y-91648894D01*
X149890847Y-91612354D01*
X149886500Y-91568212D01*
X149886500Y-90619288D01*
X149890847Y-90575146D01*
X149901932Y-90538606D01*
X149919933Y-90504929D01*
X149944159Y-90475409D01*
X149973679Y-90451183D01*
X150007356Y-90433182D01*
X150043896Y-90422097D01*
X150088038Y-90417750D01*
X151536962Y-90417750D01*
X151581104Y-90422097D01*
X151581104Y-90422097D01*
G37*
G36*
X187909468Y-88509815D02*
G01*
X187948138Y-88521546D01*
X187983777Y-88540596D01*
X188015017Y-88566233D01*
X188040654Y-88597473D01*
X188059704Y-88633112D01*
X188071435Y-88671782D01*
X188076000Y-88718138D01*
X188076000Y-89369362D01*
X188071435Y-89415718D01*
X188059704Y-89454388D01*
X188040654Y-89490027D01*
X188015017Y-89521267D01*
X187983777Y-89546904D01*
X187948138Y-89565954D01*
X187909468Y-89577685D01*
X187863112Y-89582250D01*
X186786888Y-89582250D01*
X186740532Y-89577685D01*
X186701862Y-89565954D01*
X186666223Y-89546904D01*
X186634983Y-89521267D01*
X186609346Y-89490027D01*
X186590296Y-89454388D01*
X186578565Y-89415718D01*
X186574000Y-89369362D01*
X186574000Y-88718138D01*
X186578565Y-88671782D01*
X186590296Y-88633112D01*
X186609346Y-88597473D01*
X186634983Y-88566233D01*
X186666223Y-88540596D01*
X186701862Y-88521546D01*
X186740532Y-88509815D01*
X186786888Y-88505250D01*
X187863112Y-88505250D01*
X187909468Y-88509815D01*
X187909468Y-88509815D01*
G37*
G36*
X151581104Y-87622097D02*
G01*
X151617644Y-87633182D01*
X151651321Y-87651183D01*
X151680841Y-87675409D01*
X151705067Y-87704929D01*
X151723068Y-87738606D01*
X151734153Y-87775146D01*
X151738500Y-87819288D01*
X151738500Y-88768212D01*
X151734153Y-88812354D01*
X151723068Y-88848894D01*
X151705067Y-88882571D01*
X151680841Y-88912091D01*
X151651321Y-88936317D01*
X151617644Y-88954318D01*
X151581104Y-88965403D01*
X151536962Y-88969750D01*
X150088038Y-88969750D01*
X150043896Y-88965403D01*
X150007356Y-88954318D01*
X149973679Y-88936317D01*
X149944159Y-88912091D01*
X149919933Y-88882571D01*
X149901932Y-88848894D01*
X149890847Y-88812354D01*
X149886500Y-88768212D01*
X149886500Y-87819288D01*
X149890847Y-87775146D01*
X149901932Y-87738606D01*
X149919933Y-87704929D01*
X149944159Y-87675409D01*
X149973679Y-87651183D01*
X150007356Y-87633182D01*
X150043896Y-87622097D01*
X150088038Y-87617750D01*
X151536962Y-87617750D01*
X151581104Y-87622097D01*
X151581104Y-87622097D01*
G37*
G36*
X175458218Y-86756565D02*
G01*
X175496888Y-86768296D01*
X175532527Y-86787346D01*
X175563767Y-86812983D01*
X175589404Y-86844223D01*
X175608454Y-86879862D01*
X175620185Y-86918532D01*
X175624750Y-86964888D01*
X175624750Y-88041112D01*
X175620185Y-88087468D01*
X175608454Y-88126138D01*
X175589404Y-88161777D01*
X175563767Y-88193017D01*
X175532527Y-88218654D01*
X175496888Y-88237704D01*
X175458218Y-88249435D01*
X175411862Y-88254000D01*
X174760638Y-88254000D01*
X174714282Y-88249435D01*
X174675612Y-88237704D01*
X174639973Y-88218654D01*
X174608733Y-88193017D01*
X174583096Y-88161777D01*
X174564046Y-88126138D01*
X174552315Y-88087468D01*
X174547750Y-88041112D01*
X174547750Y-86964888D01*
X174552315Y-86918532D01*
X174564046Y-86879862D01*
X174583096Y-86844223D01*
X174608733Y-86812983D01*
X174639973Y-86787346D01*
X174675612Y-86768296D01*
X174714282Y-86756565D01*
X174760638Y-86752000D01*
X175411862Y-86752000D01*
X175458218Y-86756565D01*
X175458218Y-86756565D01*
G37*
G36*
X173583218Y-86756565D02*
G01*
X173621888Y-86768296D01*
X173657527Y-86787346D01*
X173688767Y-86812983D01*
X173714404Y-86844223D01*
X173733454Y-86879862D01*
X173745185Y-86918532D01*
X173749750Y-86964888D01*
X173749750Y-88041112D01*
X173745185Y-88087468D01*
X173733454Y-88126138D01*
X173714404Y-88161777D01*
X173688767Y-88193017D01*
X173657527Y-88218654D01*
X173621888Y-88237704D01*
X173583218Y-88249435D01*
X173536862Y-88254000D01*
X172885638Y-88254000D01*
X172839282Y-88249435D01*
X172800612Y-88237704D01*
X172764973Y-88218654D01*
X172733733Y-88193017D01*
X172708096Y-88161777D01*
X172689046Y-88126138D01*
X172677315Y-88087468D01*
X172672750Y-88041112D01*
X172672750Y-86964888D01*
X172677315Y-86918532D01*
X172689046Y-86879862D01*
X172708096Y-86844223D01*
X172733733Y-86812983D01*
X172764973Y-86787346D01*
X172800612Y-86768296D01*
X172839282Y-86756565D01*
X172885638Y-86752000D01*
X173536862Y-86752000D01*
X173583218Y-86756565D01*
X173583218Y-86756565D01*
G37*
G36*
X182353218Y-86922315D02*
G01*
X182391888Y-86934046D01*
X182427527Y-86953096D01*
X182458767Y-86978733D01*
X182484404Y-87009973D01*
X182503454Y-87045612D01*
X182515185Y-87084282D01*
X182519750Y-87130638D01*
X182519750Y-87781862D01*
X182515185Y-87828218D01*
X182503454Y-87866888D01*
X182484404Y-87902527D01*
X182458767Y-87933767D01*
X182427527Y-87959404D01*
X182391888Y-87978454D01*
X182353218Y-87990185D01*
X182306862Y-87994750D01*
X181230638Y-87994750D01*
X181184282Y-87990185D01*
X181145612Y-87978454D01*
X181109973Y-87959404D01*
X181078733Y-87933767D01*
X181053096Y-87902527D01*
X181034046Y-87866888D01*
X181022315Y-87828218D01*
X181017750Y-87781862D01*
X181017750Y-87130638D01*
X181022315Y-87084282D01*
X181034046Y-87045612D01*
X181053096Y-87009973D01*
X181078733Y-86978733D01*
X181109973Y-86953096D01*
X181145612Y-86934046D01*
X181184282Y-86922315D01*
X181230638Y-86917750D01*
X182306862Y-86917750D01*
X182353218Y-86922315D01*
X182353218Y-86922315D01*
G37*
G36*
X187909468Y-86634815D02*
G01*
X187948138Y-86646546D01*
X187983777Y-86665596D01*
X188015017Y-86691233D01*
X188040654Y-86722473D01*
X188059704Y-86758112D01*
X188071435Y-86796782D01*
X188076000Y-86843138D01*
X188076000Y-87494362D01*
X188071435Y-87540718D01*
X188059704Y-87579388D01*
X188040654Y-87615027D01*
X188015017Y-87646267D01*
X187983777Y-87671904D01*
X187948138Y-87690954D01*
X187909468Y-87702685D01*
X187863112Y-87707250D01*
X186786888Y-87707250D01*
X186740532Y-87702685D01*
X186701862Y-87690954D01*
X186666223Y-87671904D01*
X186634983Y-87646267D01*
X186609346Y-87615027D01*
X186590296Y-87579388D01*
X186578565Y-87540718D01*
X186574000Y-87494362D01*
X186574000Y-86843138D01*
X186578565Y-86796782D01*
X186590296Y-86758112D01*
X186609346Y-86722473D01*
X186634983Y-86691233D01*
X186666223Y-86665596D01*
X186701862Y-86646546D01*
X186740532Y-86634815D01*
X186786888Y-86630250D01*
X187863112Y-86630250D01*
X187909468Y-86634815D01*
X187909468Y-86634815D01*
G37*
G36*
X182353218Y-85047315D02*
G01*
X182391888Y-85059046D01*
X182427527Y-85078096D01*
X182458767Y-85103733D01*
X182484404Y-85134973D01*
X182503454Y-85170612D01*
X182515185Y-85209282D01*
X182519750Y-85255638D01*
X182519750Y-85906862D01*
X182515185Y-85953218D01*
X182503454Y-85991888D01*
X182484404Y-86027527D01*
X182458767Y-86058767D01*
X182427527Y-86084404D01*
X182391888Y-86103454D01*
X182353218Y-86115185D01*
X182306862Y-86119750D01*
X181230638Y-86119750D01*
X181184282Y-86115185D01*
X181145612Y-86103454D01*
X181109973Y-86084404D01*
X181078733Y-86058767D01*
X181053096Y-86027527D01*
X181034046Y-85991888D01*
X181022315Y-85953218D01*
X181017750Y-85906862D01*
X181017750Y-85255638D01*
X181022315Y-85209282D01*
X181034046Y-85170612D01*
X181053096Y-85134973D01*
X181078733Y-85103733D01*
X181109973Y-85078096D01*
X181145612Y-85059046D01*
X181184282Y-85047315D01*
X181230638Y-85042750D01*
X182306862Y-85042750D01*
X182353218Y-85047315D01*
X182353218Y-85047315D01*
G37*
G36*
X182454750Y-75139750D02*
G01*
X180447750Y-75139750D01*
X180447750Y-73132750D01*
X182454750Y-73132750D01*
X182454750Y-75139750D01*
X182454750Y-75139750D01*
G37*
G36*
X159987675Y-73138238D02*
G01*
X160153960Y-73171313D01*
X160336586Y-73246959D01*
X160500944Y-73356780D01*
X160640720Y-73496556D01*
X160750541Y-73660914D01*
X160826187Y-73843540D01*
X160864750Y-74037414D01*
X160864750Y-74235086D01*
X160826187Y-74428960D01*
X160750541Y-74611586D01*
X160640720Y-74775944D01*
X160500944Y-74915720D01*
X160336586Y-75025541D01*
X160153960Y-75101187D01*
X159987675Y-75134262D01*
X159960087Y-75139750D01*
X159762413Y-75139750D01*
X159734825Y-75134262D01*
X159568540Y-75101187D01*
X159385914Y-75025541D01*
X159221556Y-74915720D01*
X159081780Y-74775944D01*
X158971959Y-74611586D01*
X158896313Y-74428960D01*
X158857750Y-74235086D01*
X158857750Y-74037414D01*
X158896313Y-73843540D01*
X158971959Y-73660914D01*
X159081780Y-73496556D01*
X159221556Y-73356780D01*
X159385914Y-73246959D01*
X159568540Y-73171313D01*
X159734825Y-73138238D01*
X159762413Y-73132750D01*
X159960087Y-73132750D01*
X159987675Y-73138238D01*
X159987675Y-73138238D01*
G37*
G36*
X179037675Y-73138238D02*
G01*
X179203960Y-73171313D01*
X179386586Y-73246959D01*
X179550944Y-73356780D01*
X179690720Y-73496556D01*
X179800541Y-73660914D01*
X179876187Y-73843540D01*
X179914750Y-74037414D01*
X179914750Y-74235086D01*
X179876187Y-74428960D01*
X179800541Y-74611586D01*
X179690720Y-74775944D01*
X179550944Y-74915720D01*
X179386586Y-75025541D01*
X179203960Y-75101187D01*
X179037675Y-75134262D01*
X179010087Y-75139750D01*
X178812413Y-75139750D01*
X178784825Y-75134262D01*
X178618540Y-75101187D01*
X178435914Y-75025541D01*
X178271556Y-74915720D01*
X178131780Y-74775944D01*
X178021959Y-74611586D01*
X177946313Y-74428960D01*
X177907750Y-74235086D01*
X177907750Y-74037414D01*
X177946313Y-73843540D01*
X178021959Y-73660914D01*
X178131780Y-73496556D01*
X178271556Y-73356780D01*
X178435914Y-73246959D01*
X178618540Y-73171313D01*
X178784825Y-73138238D01*
X178812413Y-73132750D01*
X179010087Y-73132750D01*
X179037675Y-73138238D01*
X179037675Y-73138238D01*
G37*
G36*
X163404750Y-75139750D02*
G01*
X161397750Y-75139750D01*
X161397750Y-73132750D01*
X163404750Y-73132750D01*
X163404750Y-75139750D01*
X163404750Y-75139750D01*
G37*
G36*
X169719750Y-72794750D02*
G01*
X168417750Y-72794750D01*
X168417750Y-71792750D01*
X169719750Y-71792750D01*
X169719750Y-72794750D01*
X169719750Y-72794750D01*
G37*
G36*
X189563500Y-72732250D02*
G01*
X188261500Y-72732250D01*
X188261500Y-71730250D01*
X189563500Y-71730250D01*
X189563500Y-72732250D01*
X189563500Y-72732250D01*
G37*
G36*
X180777724Y-67089934D02*
G01*
X180995724Y-67180233D01*
X181149873Y-67244083D01*
X181484798Y-67467873D01*
X181769627Y-67752702D01*
X181993417Y-68087627D01*
X182025812Y-68165836D01*
X182147566Y-68459776D01*
X182226150Y-68854844D01*
X182226150Y-69257656D01*
X182147566Y-69652724D01*
X182096701Y-69775522D01*
X181993417Y-70024873D01*
X181769627Y-70359798D01*
X181484798Y-70644627D01*
X181149873Y-70868417D01*
X180995724Y-70932267D01*
X180777724Y-71022566D01*
X180382656Y-71101150D01*
X179979844Y-71101150D01*
X179584776Y-71022566D01*
X179366776Y-70932267D01*
X179212627Y-70868417D01*
X178877702Y-70644627D01*
X178592873Y-70359798D01*
X178369083Y-70024873D01*
X178265799Y-69775522D01*
X178214934Y-69652724D01*
X178136350Y-69257656D01*
X178136350Y-68854844D01*
X178214934Y-68459776D01*
X178336688Y-68165836D01*
X178369083Y-68087627D01*
X178592873Y-67752702D01*
X178877702Y-67467873D01*
X179212627Y-67244083D01*
X179366776Y-67180233D01*
X179584776Y-67089934D01*
X179979844Y-67011350D01*
X180382656Y-67011350D01*
X180777724Y-67089934D01*
X180777724Y-67089934D01*
G37*
G36*
X161727724Y-67089934D02*
G01*
X161945724Y-67180233D01*
X162099873Y-67244083D01*
X162434798Y-67467873D01*
X162719627Y-67752702D01*
X162943417Y-68087627D01*
X162975812Y-68165836D01*
X163097566Y-68459776D01*
X163176150Y-68854844D01*
X163176150Y-69257656D01*
X163097566Y-69652724D01*
X163046701Y-69775522D01*
X162943417Y-70024873D01*
X162719627Y-70359798D01*
X162434798Y-70644627D01*
X162099873Y-70868417D01*
X161945724Y-70932267D01*
X161727724Y-71022566D01*
X161332656Y-71101150D01*
X160929844Y-71101150D01*
X160534776Y-71022566D01*
X160316776Y-70932267D01*
X160162627Y-70868417D01*
X159827702Y-70644627D01*
X159542873Y-70359798D01*
X159319083Y-70024873D01*
X159215799Y-69775522D01*
X159164934Y-69652724D01*
X159086350Y-69257656D01*
X159086350Y-68854844D01*
X159164934Y-68459776D01*
X159286688Y-68165836D01*
X159319083Y-68087627D01*
X159542873Y-67752702D01*
X159827702Y-67467873D01*
X160162627Y-67244083D01*
X160316776Y-67180233D01*
X160534776Y-67089934D01*
X160929844Y-67011350D01*
X161332656Y-67011350D01*
X161727724Y-67089934D01*
X161727724Y-67089934D01*
G37*
G36*
X156321354Y-68165835D02*
G01*
X156489876Y-68235639D01*
X156641541Y-68336978D01*
X156770522Y-68465959D01*
X156871861Y-68617624D01*
X156941665Y-68786146D01*
X156977250Y-68965047D01*
X156977250Y-69147453D01*
X156941665Y-69326354D01*
X156871861Y-69494876D01*
X156770522Y-69646541D01*
X156641541Y-69775522D01*
X156489876Y-69876861D01*
X156321354Y-69946665D01*
X156142453Y-69982250D01*
X155960047Y-69982250D01*
X155781146Y-69946665D01*
X155612624Y-69876861D01*
X155460959Y-69775522D01*
X155331978Y-69646541D01*
X155230639Y-69494876D01*
X155160835Y-69326354D01*
X155125250Y-69147453D01*
X155125250Y-68965047D01*
X155160835Y-68786146D01*
X155230639Y-68617624D01*
X155331978Y-68465959D01*
X155460959Y-68336978D01*
X155612624Y-68235639D01*
X155781146Y-68165835D01*
X155960047Y-68130250D01*
X156142453Y-68130250D01*
X156321354Y-68165835D01*
X156321354Y-68165835D01*
G37*
G36*
X166481354Y-68165835D02*
G01*
X166649876Y-68235639D01*
X166801541Y-68336978D01*
X166930522Y-68465959D01*
X167031861Y-68617624D01*
X167101665Y-68786146D01*
X167137250Y-68965047D01*
X167137250Y-69147453D01*
X167101665Y-69326354D01*
X167031861Y-69494876D01*
X166930522Y-69646541D01*
X166801541Y-69775522D01*
X166649876Y-69876861D01*
X166481354Y-69946665D01*
X166302453Y-69982250D01*
X166120047Y-69982250D01*
X165941146Y-69946665D01*
X165772624Y-69876861D01*
X165620959Y-69775522D01*
X165491978Y-69646541D01*
X165390639Y-69494876D01*
X165320835Y-69326354D01*
X165285250Y-69147453D01*
X165285250Y-68965047D01*
X165320835Y-68786146D01*
X165390639Y-68617624D01*
X165491978Y-68465959D01*
X165620959Y-68336978D01*
X165772624Y-68235639D01*
X165941146Y-68165835D01*
X166120047Y-68130250D01*
X166302453Y-68130250D01*
X166481354Y-68165835D01*
X166481354Y-68165835D01*
G37*
G36*
X185531354Y-68165835D02*
G01*
X185699876Y-68235639D01*
X185851541Y-68336978D01*
X185980522Y-68465959D01*
X186081861Y-68617624D01*
X186151665Y-68786146D01*
X186187250Y-68965047D01*
X186187250Y-69147453D01*
X186151665Y-69326354D01*
X186081861Y-69494876D01*
X185980522Y-69646541D01*
X185851541Y-69775522D01*
X185699876Y-69876861D01*
X185531354Y-69946665D01*
X185352453Y-69982250D01*
X185170047Y-69982250D01*
X184991146Y-69946665D01*
X184822624Y-69876861D01*
X184670959Y-69775522D01*
X184541978Y-69646541D01*
X184440639Y-69494876D01*
X184370835Y-69326354D01*
X184335250Y-69147453D01*
X184335250Y-68965047D01*
X184370835Y-68786146D01*
X184440639Y-68617624D01*
X184541978Y-68465959D01*
X184670959Y-68336978D01*
X184822624Y-68235639D01*
X184991146Y-68165835D01*
X185170047Y-68130250D01*
X185352453Y-68130250D01*
X185531354Y-68165835D01*
X185531354Y-68165835D01*
G37*
G36*
X175371354Y-68165835D02*
G01*
X175539876Y-68235639D01*
X175691541Y-68336978D01*
X175820522Y-68465959D01*
X175921861Y-68617624D01*
X175991665Y-68786146D01*
X176027250Y-68965047D01*
X176027250Y-69147453D01*
X175991665Y-69326354D01*
X175921861Y-69494876D01*
X175820522Y-69646541D01*
X175691541Y-69775522D01*
X175539876Y-69876861D01*
X175371354Y-69946665D01*
X175192453Y-69982250D01*
X175010047Y-69982250D01*
X174831146Y-69946665D01*
X174662624Y-69876861D01*
X174510959Y-69775522D01*
X174381978Y-69646541D01*
X174280639Y-69494876D01*
X174210835Y-69326354D01*
X174175250Y-69147453D01*
X174175250Y-68965047D01*
X174210835Y-68786146D01*
X174280639Y-68617624D01*
X174381978Y-68465959D01*
X174510959Y-68336978D01*
X174662624Y-68235639D01*
X174831146Y-68165835D01*
X175010047Y-68130250D01*
X175192453Y-68130250D01*
X175371354Y-68165835D01*
X175371354Y-68165835D01*
G37*
G36*
X169719750Y-69494750D02*
G01*
X168417750Y-69494750D01*
X168417750Y-68492750D01*
X169719750Y-68492750D01*
X169719750Y-69494750D01*
X169719750Y-69494750D01*
G37*
G36*
X189563500Y-69432250D02*
G01*
X188261500Y-69432250D01*
X188261500Y-68430250D01*
X189563500Y-68430250D01*
X189563500Y-69432250D01*
X189563500Y-69432250D01*
G37*
G36*
X176562810Y-65355314D02*
G01*
X176714277Y-65385443D01*
X176928295Y-65474092D01*
X176928296Y-65474093D01*
X177120904Y-65602789D01*
X177284711Y-65766596D01*
X177370508Y-65895001D01*
X177413408Y-65959205D01*
X177502057Y-66173223D01*
X177547250Y-66400424D01*
X177547250Y-66632076D01*
X177502057Y-66859277D01*
X177413408Y-67073295D01*
X177413407Y-67073296D01*
X177284711Y-67265904D01*
X177120904Y-67429711D01*
X177063790Y-67467873D01*
X176928295Y-67558408D01*
X176714277Y-67647057D01*
X176562810Y-67677186D01*
X176487077Y-67692250D01*
X176255423Y-67692250D01*
X176179690Y-67677186D01*
X176028223Y-67647057D01*
X175814205Y-67558408D01*
X175678710Y-67467873D01*
X175621596Y-67429711D01*
X175457789Y-67265904D01*
X175329093Y-67073296D01*
X175329092Y-67073295D01*
X175240443Y-66859277D01*
X175195250Y-66632076D01*
X175195250Y-66400424D01*
X175240443Y-66173223D01*
X175329092Y-65959205D01*
X175371992Y-65895001D01*
X175457789Y-65766596D01*
X175621596Y-65602789D01*
X175814204Y-65474093D01*
X175814205Y-65474092D01*
X176028223Y-65385443D01*
X176179690Y-65355314D01*
X176255423Y-65340250D01*
X176487077Y-65340250D01*
X176562810Y-65355314D01*
X176562810Y-65355314D01*
G37*
G36*
X157512810Y-65355314D02*
G01*
X157664277Y-65385443D01*
X157878295Y-65474092D01*
X157878296Y-65474093D01*
X158070904Y-65602789D01*
X158234711Y-65766596D01*
X158320508Y-65895001D01*
X158363408Y-65959205D01*
X158452057Y-66173223D01*
X158497250Y-66400424D01*
X158497250Y-66632076D01*
X158452057Y-66859277D01*
X158363408Y-67073295D01*
X158363407Y-67073296D01*
X158234711Y-67265904D01*
X158070904Y-67429711D01*
X158013790Y-67467873D01*
X157878295Y-67558408D01*
X157664277Y-67647057D01*
X157512810Y-67677186D01*
X157437077Y-67692250D01*
X157205423Y-67692250D01*
X157129690Y-67677186D01*
X156978223Y-67647057D01*
X156764205Y-67558408D01*
X156628710Y-67467873D01*
X156571596Y-67429711D01*
X156407789Y-67265904D01*
X156279093Y-67073296D01*
X156279092Y-67073295D01*
X156190443Y-66859277D01*
X156145250Y-66632076D01*
X156145250Y-66400424D01*
X156190443Y-66173223D01*
X156279092Y-65959205D01*
X156321992Y-65895001D01*
X156407789Y-65766596D01*
X156571596Y-65602789D01*
X156764204Y-65474093D01*
X156764205Y-65474092D01*
X156978223Y-65385443D01*
X157129690Y-65355314D01*
X157205423Y-65340250D01*
X157437077Y-65340250D01*
X157512810Y-65355314D01*
X157512810Y-65355314D01*
G37*
G36*
X163862810Y-62815314D02*
G01*
X164014277Y-62845443D01*
X164228295Y-62934092D01*
X164228296Y-62934093D01*
X164420904Y-63062789D01*
X164584711Y-63226596D01*
X164670508Y-63355001D01*
X164713408Y-63419205D01*
X164802057Y-63633223D01*
X164847250Y-63860424D01*
X164847250Y-64092076D01*
X164802057Y-64319277D01*
X164713408Y-64533295D01*
X164713407Y-64533296D01*
X164584711Y-64725904D01*
X164420904Y-64889711D01*
X164292499Y-64975508D01*
X164228295Y-65018408D01*
X164014277Y-65107057D01*
X163862810Y-65137186D01*
X163787077Y-65152250D01*
X163555423Y-65152250D01*
X163479690Y-65137186D01*
X163328223Y-65107057D01*
X163114205Y-65018408D01*
X163050001Y-64975508D01*
X162921596Y-64889711D01*
X162757789Y-64725904D01*
X162629093Y-64533296D01*
X162629092Y-64533295D01*
X162540443Y-64319277D01*
X162495250Y-64092076D01*
X162495250Y-63860424D01*
X162540443Y-63633223D01*
X162629092Y-63419205D01*
X162671992Y-63355001D01*
X162757789Y-63226596D01*
X162921596Y-63062789D01*
X163114204Y-62934093D01*
X163114205Y-62934092D01*
X163328223Y-62845443D01*
X163479690Y-62815314D01*
X163555423Y-62800250D01*
X163787077Y-62800250D01*
X163862810Y-62815314D01*
X163862810Y-62815314D01*
G37*
G36*
X182912810Y-62815314D02*
G01*
X183064277Y-62845443D01*
X183278295Y-62934092D01*
X183278296Y-62934093D01*
X183470904Y-63062789D01*
X183634711Y-63226596D01*
X183720508Y-63355001D01*
X183763408Y-63419205D01*
X183852057Y-63633223D01*
X183897250Y-63860424D01*
X183897250Y-64092076D01*
X183852057Y-64319277D01*
X183763408Y-64533295D01*
X183763407Y-64533296D01*
X183634711Y-64725904D01*
X183470904Y-64889711D01*
X183342499Y-64975508D01*
X183278295Y-65018408D01*
X183064277Y-65107057D01*
X182912810Y-65137186D01*
X182837077Y-65152250D01*
X182605423Y-65152250D01*
X182529690Y-65137186D01*
X182378223Y-65107057D01*
X182164205Y-65018408D01*
X182100001Y-64975508D01*
X181971596Y-64889711D01*
X181807789Y-64725904D01*
X181679093Y-64533296D01*
X181679092Y-64533295D01*
X181590443Y-64319277D01*
X181545250Y-64092076D01*
X181545250Y-63860424D01*
X181590443Y-63633223D01*
X181679092Y-63419205D01*
X181721992Y-63355001D01*
X181807789Y-63226596D01*
X181971596Y-63062789D01*
X182164204Y-62934093D01*
X182164205Y-62934092D01*
X182378223Y-62845443D01*
X182529690Y-62815314D01*
X182605423Y-62800250D01*
X182837077Y-62800250D01*
X182912810Y-62815314D01*
X182912810Y-62815314D01*
G37*
G36*
X161503218Y-54816065D02*
G01*
X161541888Y-54827796D01*
X161577527Y-54846846D01*
X161608767Y-54872483D01*
X161634404Y-54903723D01*
X161653454Y-54939362D01*
X161665185Y-54978032D01*
X161669750Y-55024388D01*
X161669750Y-56100612D01*
X161665185Y-56146968D01*
X161653454Y-56185638D01*
X161634404Y-56221277D01*
X161608767Y-56252517D01*
X161577527Y-56278154D01*
X161541888Y-56297204D01*
X161503218Y-56308935D01*
X161456862Y-56313500D01*
X160805638Y-56313500D01*
X160759282Y-56308935D01*
X160720612Y-56297204D01*
X160684973Y-56278154D01*
X160653733Y-56252517D01*
X160628096Y-56221277D01*
X160609046Y-56185638D01*
X160597315Y-56146968D01*
X160592750Y-56100612D01*
X160592750Y-55024388D01*
X160597315Y-54978032D01*
X160609046Y-54939362D01*
X160628096Y-54903723D01*
X160653733Y-54872483D01*
X160684973Y-54846846D01*
X160720612Y-54827796D01*
X160759282Y-54816065D01*
X160805638Y-54811500D01*
X161456862Y-54811500D01*
X161503218Y-54816065D01*
X161503218Y-54816065D01*
G37*
G36*
X159628218Y-54816065D02*
G01*
X159666888Y-54827796D01*
X159702527Y-54846846D01*
X159733767Y-54872483D01*
X159759404Y-54903723D01*
X159778454Y-54939362D01*
X159790185Y-54978032D01*
X159794750Y-55024388D01*
X159794750Y-56100612D01*
X159790185Y-56146968D01*
X159778454Y-56185638D01*
X159759404Y-56221277D01*
X159733767Y-56252517D01*
X159702527Y-56278154D01*
X159666888Y-56297204D01*
X159628218Y-56308935D01*
X159581862Y-56313500D01*
X158930638Y-56313500D01*
X158884282Y-56308935D01*
X158845612Y-56297204D01*
X158809973Y-56278154D01*
X158778733Y-56252517D01*
X158753096Y-56221277D01*
X158734046Y-56185638D01*
X158722315Y-56146968D01*
X158717750Y-56100612D01*
X158717750Y-55024388D01*
X158722315Y-54978032D01*
X158734046Y-54939362D01*
X158753096Y-54903723D01*
X158778733Y-54872483D01*
X158809973Y-54846846D01*
X158845612Y-54827796D01*
X158884282Y-54816065D01*
X158930638Y-54811500D01*
X159581862Y-54811500D01*
X159628218Y-54816065D01*
X159628218Y-54816065D01*
G37*
G36*
X174482877Y-53118287D02*
G01*
X174652716Y-53169807D01*
X174809241Y-53253472D01*
X174844979Y-53282802D01*
X174946436Y-53366064D01*
X175029698Y-53467521D01*
X175059028Y-53503259D01*
X175142693Y-53659784D01*
X175194213Y-53829623D01*
X175194213Y-53829625D01*
X175207250Y-53961990D01*
X175207250Y-55050510D01*
X175200731Y-55116693D01*
X175194213Y-55182877D01*
X175142693Y-55352716D01*
X175059028Y-55509241D01*
X175029698Y-55544979D01*
X174946436Y-55646436D01*
X174809239Y-55759029D01*
X174652717Y-55842692D01*
X174652715Y-55842693D01*
X174482876Y-55894213D01*
X174306250Y-55911609D01*
X174129623Y-55894213D01*
X173959784Y-55842693D01*
X173803259Y-55759028D01*
X173767521Y-55729698D01*
X173666064Y-55646436D01*
X173553471Y-55509239D01*
X173469808Y-55352717D01*
X173469807Y-55352715D01*
X173418287Y-55182876D01*
X173405250Y-55050507D01*
X173405251Y-53961992D01*
X173418288Y-53829623D01*
X173469808Y-53659784D01*
X173553473Y-53503259D01*
X173582803Y-53467521D01*
X173666065Y-53366064D01*
X173767522Y-53282802D01*
X173803260Y-53253472D01*
X173959785Y-53169807D01*
X174129624Y-53118287D01*
X174306250Y-53100891D01*
X174482877Y-53118287D01*
X174482877Y-53118287D01*
G37*
G36*
X167182877Y-53118287D02*
G01*
X167352716Y-53169807D01*
X167509241Y-53253472D01*
X167544979Y-53282802D01*
X167646436Y-53366064D01*
X167729698Y-53467521D01*
X167759028Y-53503259D01*
X167842693Y-53659784D01*
X167894213Y-53829623D01*
X167894213Y-53829625D01*
X167907250Y-53961990D01*
X167907250Y-55050510D01*
X167900731Y-55116693D01*
X167894213Y-55182877D01*
X167842693Y-55352716D01*
X167759028Y-55509241D01*
X167729698Y-55544979D01*
X167646436Y-55646436D01*
X167509239Y-55759029D01*
X167352717Y-55842692D01*
X167352715Y-55842693D01*
X167182876Y-55894213D01*
X167006250Y-55911609D01*
X166829623Y-55894213D01*
X166659784Y-55842693D01*
X166503259Y-55759028D01*
X166467521Y-55729698D01*
X166366064Y-55646436D01*
X166253471Y-55509239D01*
X166169808Y-55352717D01*
X166169807Y-55352715D01*
X166118287Y-55182876D01*
X166105250Y-55050507D01*
X166105251Y-53961992D01*
X166118288Y-53829623D01*
X166169808Y-53659784D01*
X166253473Y-53503259D01*
X166282803Y-53467521D01*
X166366065Y-53366064D01*
X166467522Y-53282802D01*
X166503260Y-53253472D01*
X166659785Y-53169807D01*
X166829624Y-53118287D01*
X167006250Y-53100891D01*
X167182877Y-53118287D01*
X167182877Y-53118287D01*
G37*
G36*
X172557250Y-55682250D02*
G01*
X168755250Y-55682250D01*
X168755250Y-53330250D01*
X172557250Y-53330250D01*
X172557250Y-55682250D01*
X172557250Y-55682250D01*
G37*
G36*
X159628218Y-51641065D02*
G01*
X159666888Y-51652796D01*
X159702527Y-51671846D01*
X159733767Y-51697483D01*
X159759404Y-51728723D01*
X159778454Y-51764362D01*
X159790185Y-51803032D01*
X159794750Y-51849388D01*
X159794750Y-52925612D01*
X159790185Y-52971968D01*
X159778454Y-53010638D01*
X159759404Y-53046277D01*
X159733767Y-53077517D01*
X159702527Y-53103154D01*
X159666888Y-53122204D01*
X159628218Y-53133935D01*
X159581862Y-53138500D01*
X158930638Y-53138500D01*
X158884282Y-53133935D01*
X158845612Y-53122204D01*
X158809973Y-53103154D01*
X158778733Y-53077517D01*
X158753096Y-53046277D01*
X158734046Y-53010638D01*
X158722315Y-52971968D01*
X158717750Y-52925612D01*
X158717750Y-51849388D01*
X158722315Y-51803032D01*
X158734046Y-51764362D01*
X158753096Y-51728723D01*
X158778733Y-51697483D01*
X158809973Y-51671846D01*
X158845612Y-51652796D01*
X158884282Y-51641065D01*
X158930638Y-51636500D01*
X159581862Y-51636500D01*
X159628218Y-51641065D01*
X159628218Y-51641065D01*
G37*
G36*
X161503218Y-51641065D02*
G01*
X161541888Y-51652796D01*
X161577527Y-51671846D01*
X161608767Y-51697483D01*
X161634404Y-51728723D01*
X161653454Y-51764362D01*
X161665185Y-51803032D01*
X161669750Y-51849388D01*
X161669750Y-52925612D01*
X161665185Y-52971968D01*
X161653454Y-53010638D01*
X161634404Y-53046277D01*
X161608767Y-53077517D01*
X161577527Y-53103154D01*
X161541888Y-53122204D01*
X161503218Y-53133935D01*
X161456862Y-53138500D01*
X160805638Y-53138500D01*
X160759282Y-53133935D01*
X160720612Y-53122204D01*
X160684973Y-53103154D01*
X160653733Y-53077517D01*
X160628096Y-53046277D01*
X160609046Y-53010638D01*
X160597315Y-52971968D01*
X160592750Y-52925612D01*
X160592750Y-51849388D01*
X160597315Y-51803032D01*
X160609046Y-51764362D01*
X160628096Y-51728723D01*
X160653733Y-51697483D01*
X160684973Y-51671846D01*
X160720612Y-51652796D01*
X160759282Y-51641065D01*
X160805638Y-51636500D01*
X161456862Y-51636500D01*
X161503218Y-51641065D01*
X161503218Y-51641065D01*
G37*
G36*
X174482877Y-48618287D02*
G01*
X174652716Y-48669807D01*
X174809241Y-48753472D01*
X174844979Y-48782802D01*
X174946436Y-48866064D01*
X175029698Y-48967521D01*
X175059028Y-49003259D01*
X175142693Y-49159784D01*
X175194213Y-49329623D01*
X175207250Y-49461992D01*
X175207250Y-50550508D01*
X175194213Y-50682877D01*
X175142693Y-50852716D01*
X175059028Y-51009241D01*
X175029698Y-51044979D01*
X174946436Y-51146436D01*
X174809239Y-51259029D01*
X174652717Y-51342692D01*
X174652715Y-51342693D01*
X174482876Y-51394213D01*
X174306250Y-51411609D01*
X174129623Y-51394213D01*
X173959784Y-51342693D01*
X173803259Y-51259028D01*
X173767521Y-51229698D01*
X173666064Y-51146436D01*
X173553471Y-51009239D01*
X173469808Y-50852717D01*
X173469807Y-50852715D01*
X173418287Y-50682876D01*
X173405250Y-50550507D01*
X173405251Y-49461992D01*
X173418288Y-49329623D01*
X173469808Y-49159784D01*
X173553473Y-49003259D01*
X173582803Y-48967521D01*
X173666065Y-48866064D01*
X173767522Y-48782802D01*
X173803260Y-48753472D01*
X173959785Y-48669807D01*
X174129624Y-48618287D01*
X174306250Y-48600891D01*
X174482877Y-48618287D01*
X174482877Y-48618287D01*
G37*
G36*
X167182877Y-48618287D02*
G01*
X167352716Y-48669807D01*
X167509241Y-48753472D01*
X167544979Y-48782802D01*
X167646436Y-48866064D01*
X167729698Y-48967521D01*
X167759028Y-49003259D01*
X167842693Y-49159784D01*
X167894213Y-49329623D01*
X167907250Y-49461992D01*
X167907250Y-50550508D01*
X167894213Y-50682877D01*
X167842693Y-50852716D01*
X167759028Y-51009241D01*
X167729698Y-51044979D01*
X167646436Y-51146436D01*
X167509239Y-51259029D01*
X167352717Y-51342692D01*
X167352715Y-51342693D01*
X167182876Y-51394213D01*
X167006250Y-51411609D01*
X166829623Y-51394213D01*
X166659784Y-51342693D01*
X166503259Y-51259028D01*
X166467521Y-51229698D01*
X166366064Y-51146436D01*
X166253471Y-51009239D01*
X166169808Y-50852717D01*
X166169807Y-50852715D01*
X166118287Y-50682876D01*
X166105250Y-50550507D01*
X166105251Y-49461992D01*
X166118288Y-49329623D01*
X166169808Y-49159784D01*
X166253473Y-49003259D01*
X166282803Y-48967521D01*
X166366065Y-48866064D01*
X166467522Y-48782802D01*
X166503260Y-48753472D01*
X166659785Y-48669807D01*
X166829624Y-48618287D01*
X167006250Y-48600891D01*
X167182877Y-48618287D01*
X167182877Y-48618287D01*
G37*
M02*
