M48
; DRILL file {KiCad (5.1.4)-1} date 01/16/23 00:04:54
; FORMAT={-:-/ absolute / inch / decimal}
; #@! TF.CreationDate,2023-01-16T00:04:54+01:00
; #@! TF.GenerationSoftware,Kicad,Pcbnew,(5.1.4)-1
FMAT,2
INCH
T1C0.0157
T2C0.0276
T3C0.0409
T4C0.0579
T5C0.0689
T6C0.1570
%
G90
G05
T1
X6.3438Y-3.9375
X6.4375Y-4.0625
X6.4688Y-3.6875
X6.5938Y-4.0625
X6.625Y-3.75
X6.625Y-3.8044
X6.625Y-3.8438
X6.6875Y-3.2188
X6.6875Y-3.6036
X6.7188Y-3.5
X6.7188Y-3.5
X6.8749Y-3.5
X6.9688Y-3.5
X7.2188Y-3.625
X7.2812Y-3.5938
T3
X7.0438Y-2.9187
X7.1437Y-2.9187
X6.2938Y-2.9187
X6.3937Y-2.9187
T4
X6.9437Y-2.6187
X7.1937Y-2.5187
X6.1937Y-2.6187
X6.4437Y-2.5187
T5
X6.8937Y-2.7188
X7.2938Y-2.7188
X6.1437Y-2.7188
X6.5438Y-2.7188
T6
X7.0938Y-2.7188
X6.3438Y-2.7188
T2
G00X6.575Y-1.9451
M15
G01X6.575Y-1.9924
M16
G05
G00X6.575Y-2.1223
M15
G01X6.575Y-2.1695
M16
G05
G00X6.8625Y-1.9451
M15
G01X6.8625Y-1.9924
M16
G05
G00X6.8625Y-2.1223
M15
G01X6.8625Y-2.1695
M16
G05
T0
M30
